<svg xmlns="http://www.w3.org/2000/svg" viewBox="0 0 94.2 94.2">
  <circle cx="47.1" cy="47.1" r="47.1" fill="#cad3e0"/>
  <g fill="none" stroke="#fff" stroke-width="2" stroke-linecap="round" stroke-miterlimit="10">
    <path d="M28.1 33.7h16.3M28.1 37.9h16.3M28.1 42.1h16.3M28.1 46.3h8.5M28.1 50.5h6.3"/>
  </g>
  <path d="M39 63.1H25.2c-1.9 0-3.5-1.6-3.5-3.5V23.4c0-1.9 1.6-3.5 3.5-3.5h16.7v5.3c0 2.3 1.8 4.1 4.1 4.1h5.5v15.3c.4 0 .7-.1 1.1-.1.5 0 .9 0 1.4.1V28.2c0-.8-.3-1.6-.9-2.2l-7.8-7.8c-.6-.6-1.3-.9-2.2-.9h-18c-3.3 0-6 2.7-6 6v36.2c0 3.3 2.7 6 6 6H40c-.4-.7-.7-1.5-1-2.4zM44.5 21l5.9 5.9h-4.3c-.9 0-1.6-.7-1.6-1.6V21z" fill="#fff"/>
  <path d="M52.6 75.7c-8.8 0-16-7.2-16-16s7.2-16 16-16 16 7.2 16 16-7.2 16-16 16zm0-28.5a12.5 12.5 0 100 25 12.5 12.5 0 000-25z" fill="#fff"/>
  <path fill="none" stroke="#fff" stroke-width="2" stroke-linecap="round" stroke-miterlimit="10" d="M50.4 51.6l-5.3 8.1M52.8 58l-5.3 8.1M60.1 57.5l-5.3 8.2"/>
  <path d="M67.2 62.6l8.1 2.4c.3.1.7.2 1 .4 2.5 1.5 3.8 4.2 2.8 6.1s-3.9 2.4-6.6 1.3c-.3-.1-.7-.3-.9-.6l-6.7-5.1" fill="none" stroke="#fff" stroke-width="3.5" stroke-linecap="round" stroke-miterlimit="10"/>
</svg>
