<svg xmlns="http://www.w3.org/2000/svg" viewBox="0 0 94.19 94.19">
  <circle cx="47.1" cy="47.1" r="47.1" fill="#3566aa"/>
  <g stroke="#fff" stroke-miterlimit="10">
    <g fill="#fff">
      <path d="M52.75 26.41l-7.8-7.8a2.54 2.54 0 00-1.8-.75H25.17a5.51 5.51 0 00-5.51 5.51v36.22a5.51 5.51 0 005.51 5.51h22.82a5.51 5.51 0 005.51-5.51V28.21c0-.68-.27-1.32-.75-1.8zm-8.77-6.62l7.58 7.58h-5.5a2.08 2.08 0 01-2.08-2.08v-5.5zm8.01 39.8a4 4 0 01-4 4H25.17a4 4 0 01-4-4V23.38a4 4 0 014-4H42.4v5.83a3.6 3.6 0 003.59 3.59h6v30.79z"/>
      <g stroke-width="2" stroke-linecap="round">
        <path d="M28.06 33.66h16.3M28.06 37.87h16.3M28.06 42.07h16.3M28.06 46.28h8.52M28.06 50.49h6.36"/>
      </g>
    </g>
    <circle cx="52.6" cy="58.85" r="14.26" fill="#3566aa" stroke-width="3.5"/>
    <path fill="none" stroke-width="2" stroke-linecap="round" d="M50.38 51.57l-5.3 8.16M52.78 57.97l-5.31 8.15M60.12 57.52l-5.31 8.16"/>
    <path d="M67.17 62.58l8.07 2.45c.35.11.7.24 1.01.43 2.53 1.52 3.8 4.18 2.82 6.09-.98 1.91-3.87 2.45-6.59 1.29a4.29 4.29 0 01-.94-.57l-6.72-5.09" fill="none" stroke-width="3.5" stroke-linecap="round"/>
  </g>
</svg>
