<?xml version="1.0" encoding="utf-8"?>
<!-- Generator: Adobe Illustrator 23.0.6, SVG Export Plug-In . SVG Version: 6.00 Build 0)  -->
<svg version="1.1" id="Ebene_1" xmlns="http://www.w3.org/2000/svg" xmlns:xlink="http://www.w3.org/1999/xlink" x="0px" y="0px"
	 viewBox="0 0 200 200" enable-background="new 0 0 200 200" xml:space="preserve">
<g id="Gruppe_1326" transform="translate(-854 -649)">
	<g transform="matrix(1, 0, 0, 1, 854, 649)">
		<path id="Kreis-2-2" fill="#FFBE1B" d="M100,0c55.23,0,100,44.77,100,100s-44.77,100-100,100C44.77,200,0,155.23,0,100v0l0,0
			C0,44.77,44.77,0,100,0z"/>
	</g>
	<g id="Gruppe_1319" transform="translate(760.596 340.638)">
		<path id="Pfad_351" fill="none" stroke="#757474" stroke-width="11.2867" stroke-miterlimit="10" d="M211.71,376.08
			c12.39,0,22.44,10.05,22.44,22.44c0,12.39-10.05,22.44-22.44,22.44h-57.36"/>
		<path id="Pfad_352" fill="none" stroke="#757474" stroke-width="11.2867" stroke-miterlimit="10" d="M185.77,389.54l-31.42,31.41
			l29.62,29.62"/>
	</g>
</g>
</svg>
