<svg xmlns="http://www.w3.org/2000/svg" viewBox="0 0 558.3 558.3"><style>.st7{fill:none;stroke:#374355;stroke-width:15;stroke-linecap:round;stroke-linejoin:round;stroke-miterlimit:10}</style><path d="M558.3 279.1A279.1 279.1 0 103.5 323.4l551.1 1c2.4-14.8 3.7-29.9 3.7-45.3z" fill="#ddb02d"/><circle cx="405.7" cy="323.4" r="76" fill="#a40822"/><path d="M279.1 558.3c127 0 234.2-84.8 268-201h-536a279.2 279.2 0 00268 201z" fill="#c39307"/><path d="M3.5 323.4c1.9 11.6 4.4 23 7.7 34h536c3-10.8 5.6-21.8 7.4-33l-551.1-1z" fill="#456590"/><path fill="none" stroke="#374355" stroke-width="20" stroke-linecap="round" stroke-miterlimit="10" d="M200.8 215.4v199.5"/><path d="M90.5 256.3c-3.2 1-6.5-.9-7.3-4-13-53.8 25-111.7 87.8-131.5s127.2 5.7 147.3 57.2c1.2 3-.4 6.6-3.6 7.6L90.5 256.3z" fill="#16907c"/><path fill="#4c3722" d="M113.2 430.1a11.3 11.3 0 01-9.2-17.7l21-30a11.3 11.3 0 0118.4 13l-21 30a11.2 11.2 0 01-9.2 4.7zM331.2 430.1c-3.5 0-7-1.6-9.2-4.8l-21-30a11.3 11.3 0 1118.4-12.9l21 30a11.3 11.3 0 01-9.2 17.7zM163.2 392.1c-3.1 0-6.2-1.2-8.4-3.8l-61.5-69.5A11.3 11.3 0 01110 304l61.5 69.5a11.3 11.3 0 01-8.4 18.7z M364.7 394.8h-274a11.3 11.3 0 110-22.5h274a11.3 11.3 0 110 22.5z"/><path class="st7" d="M404.2 181.3c1.4-.2 16.9-1 25.6 10.6a26.2 26.2 0 015 13.5 42 42 0 0143.2-25.6M321.2 101.3c1.4-.1 16.9-1 25.6 10.6a26.2 26.2 0 015 13.5A42 42 0 01395 99.8"/></svg>
