<?xml version="1.0" encoding="utf-8"?>
<!-- Generator: Adobe Illustrator 23.0.6, SVG Export Plug-In . SVG Version: 6.00 Build 0)  -->
<svg version="1.1" id="Ebene_1" xmlns="http://www.w3.org/2000/svg" xmlns:xlink="http://www.w3.org/1999/xlink" x="0px" y="0px"
	 viewBox="0 0 200 200" enable-background="new 0 0 200 200" xml:space="preserve">
<circle id="Kreis_36_" cx="100" cy="100" r="100"/>
<g id="Männchen_2_" transform="translate(350.144 472.509)">
	<circle id="Ellipse_857_2_" fill="#FFFFFF" cx="-250.14" cy="-409.36" r="30.02"/>
</g>
<path fill="#FFFFFF" d="M150.27,107.72c-2.02-4.67-5.39-11.99-16.01-14.01c-2.09-0.38-4.2-0.56-6.32-0.53
	c-1.16,0-2.31,0.24-3.37,0.72c-7.57,3.46-15.8,5.21-24.12,5.14h-0.89C91.23,99.11,83,97.35,75.43,93.9
	c-1.06-0.48-2.21-0.73-3.37-0.72c-2.12-0.04-4.24,0.14-6.33,0.53c-10.64,2.02-13.99,9.34-16.01,14.01c0,0-16.41,37.98-4.88,53.16
	c1.74,2.31,4.27,3.9,7.11,4.46c2.48,0.52,5.03,0.67,7.56,0.45c4.86-0.36,18.92-0.45,40.49-0.34c21.57-0.11,35.63-0.02,40.49,0.34
	c2.53,0.23,5.07,0.08,7.56-0.45c2.85-0.54,5.39-2.13,7.11-4.46C166.69,145.7,150.27,107.72,150.27,107.72z M75.9,146.91h-5.83V119.4
	h5.83V146.91z M94.51,142.44c1.93,0,4.27-0.48,7.02-1.45v4.89c-2.26,0.94-4.78,1.41-7.56,1.41c-4,0-7.06-1.21-9.18-3.64
	c-2.12-2.43-3.18-5.91-3.18-10.45c0-2.86,0.52-5.37,1.56-7.52c1.04-2.15,2.54-3.8,4.49-4.95c1.95-1.15,4.24-1.72,6.86-1.72
	c2.67,0,5.36,0.65,8.05,1.94l-1.88,4.74c-1.03-0.49-2.06-0.92-3.1-1.28c-1.04-0.36-2.06-0.55-3.07-0.55c-2.2,0-3.9,0.82-5.1,2.47
	c-1.2,1.65-1.81,3.95-1.81,6.9C87.61,139.37,89.91,142.44,94.51,142.44z M129.93,146.91h-5.81v-11.87h-10.9v11.87h-5.83V119.4h5.83
	v10.78h10.9V119.4h5.81V146.91z"/>
</svg>
