<?xml version="1.0" encoding="iso-8859-1"?>
<!-- Generator: Adobe Illustrator 24.2.3, SVG Export Plug-In . SVG Version: 6.00 Build 0)  -->
<svg version="1.1" xmlns="http://www.w3.org/2000/svg" xmlns:xlink="http://www.w3.org/1999/xlink" x="0px" y="0px"
	 viewBox="0 0 53.39 73.84" style="enable-background:new 0 0 53.39 73.84;" xml:space="preserve">
<g id="Blume_Klein">
	<g>
		<g>
			<path style="fill:#FFD807;" d="M18.421,0c0.676,0,1.353,0,2.029,0c0.07,0.068,0.129,0.167,0.213,0.199
				c1.458,0.562,2.446,1.643,3.209,2.949c1.503,2.57,2.052,5.421,2.361,8.329c0.155,1.458,0.222,2.926,0.338,4.514
				c0.271-0.25,0.45-0.421,0.636-0.584c2.025-1.783,3.965-3.679,6.102-5.316c2.24-1.715,4.76-2.961,7.647-3.271
				c2.494-0.267,4.457,1.358,4.441,3.851c-0.008,1.151-0.165,2.342-0.496,3.442c-1,3.319-2.951,6.109-5.168,8.722
				c-0.899,1.059-1.846,2.076-2.815,3.162c0.171,0.048,0.241,0.09,0.305,0.082c3.226-0.397,6.391,0.081,9.493,0.856
				c2.847,0.711,5.44,1.931,6.674,4.911c0,0.416,0,0.833,0,1.249c-0.212,0.403-0.403,0.818-0.638,1.206
				c-1.088,1.797-2.717,2.991-4.552,3.896c-5.252,2.59-10.857,3.393-16.644,3.098c-3.803-0.194-7.467-0.925-10.599-3.31
				c-0.576-1.069-1.199-2.117-1.704-3.218c-0.189-0.411-0.378-0.623-0.804-0.685c-1.138-0.165-2.118-0.67-2.976-1.425
				c-0.641-0.91-1.369-1.772-1.904-2.74c-1.208-2.192-1.737-4.604-2.029-7.069c-0.699-5.907-0.184-11.672,2.162-17.19
				c0.798-1.876,1.822-3.629,3.52-4.87C17.608,0.506,18.021,0.262,18.421,0z"/>
			<path style="fill:#39AC6E;" d="M20.956,37.985c-2.627,5.045-4.976,10.201-6.404,16c8.417-5.074,16.884-3.713,25.616-1.223
				c-0.281,0.418-0.396,0.64-0.558,0.822c-3.429,3.863-7.335,7.113-11.94,9.521c-4.327,2.262-8.827,2.495-13.481,1.441
				c-1.65-0.374-1.72-0.365-1.85,1.371c-0.134,1.788-0.2,3.582-0.303,5.373c-0.049,0.85-0.114,1.7-0.172,2.55
				c-2.29,0-4.579,0-6.869,0c-0.052-1.27-0.201-2.545-0.139-3.809c0.3-6.117,1.241-12.143,2.754-18.077
				c0.179-0.702,0.099-1.112-0.546-1.533c-4.276-2.794-6.635-6.704-6.799-11.87C0.25,38.032,0.092,37.516,0,36.998
				c0-1.561,0-3.122,0-4.683c0.327-0.382,0.275-1.327,1.243-0.689c3.833,2.527,7.285,5.412,9.398,9.615
				c0.077,0.154,0.184,0.293,0.312,0.497c0.113-0.16,0.197-0.252,0.251-0.359c0.807-1.596,1.623-3.188,2.41-4.793
				c0.637-1.3,1.24-2.617,1.858-3.927c0.858,0.755,1.838,1.26,2.976,1.425c0.426,0.062,0.615,0.274,0.804,0.685
				C19.757,35.869,20.38,36.916,20.956,37.985z"/>
		</g>
	</g>
</g>
<g id="Ebene_1">
</g>
</svg>
