<svg xmlns="http://www.w3.org/2000/svg" viewBox="0 0 59.75 124.84"><defs><style>.cls-1{fill:#ffd806;}.cls-2{fill:#39ac6e;}.cls-3{fill:#60605f;}</style></defs><g id="Ebene_2" data-name="Ebene 2"><g id="Blume_Gross" data-name="Blume Gross"><path class="cls-1" d="M59.75,38.88v2a6.19,6.19,0,0,1-2.4,3.51A9.2,9.2,0,0,1,51.6,46c-2-.1-4.07-.26-6.14-.4.07.26.14.56.21.86A17.08,17.08,0,0,1,45.83,54c-1,5.16-5.21,7.06-9.77,4.41-.91-.53-1.74-1.21-2.61-1.82A33.61,33.61,0,0,1,30,48.32c-.12.29-.16.38-.19.47a26.63,26.63,0,0,1-3.55,7.48,1.93,1.93,0,0,0-.21.64c-.42.27-.81.57-1.25.8a20.93,20.93,0,0,1-3.26,1.6,5.22,5.22,0,0,1-6.6-2.8,13.5,13.5,0,0,1-1.23-7.81c.11-1.07.34-2.13.5-3.05-2.38.07-4.73.2-7.08.21A6.93,6.93,0,0,1,.76,42.59a10.78,10.78,0,0,1-.76-2V38.88c.23-.61.44-1.24.71-1.84A14,14,0,0,1,5.8,31.18l1.91-1.33c-.21-.2-.3-.29-.4-.37a5.72,5.72,0,0,0-.49-.37C3.61,26.9.87,24.34,0,20.32v-1.4s.1-.07.11-.11c.51-2.67,2.3-4.1,4.79-4.75a19,19,0,0,1,7.58-.22l1.73.25c-.05-.35-.09-.55-.11-.75-.16-1.7-.43-3.4-.45-5.1a9.06,9.06,0,0,1,2.15-6.5A5,5,0,0,1,17.86.3a7,7,0,0,1,5,.4,13.41,13.41,0,0,1,4.58,3.67c.84,1,1.61,2.07,2.47,3.17.24-.29.44-.52.62-.76.61-.81,1.17-1.66,1.81-2.44a12.08,12.08,0,0,1,5-3.78C40.84-.8,44.15.3,45.43,4.17a15.31,15.31,0,0,1,.67,6.3c-.11,1.19-.37,2.38-.57,3.62l.49,0c2.33-.14,4.66-.41,7-.39s6,1.63,6.57,4.87c0,.08.11.15.17.23v1.72c0,.05-.12.11-.13.17a11.2,11.2,0,0,1-4.15,6.58c-1.07.9-2.23,1.69-3.4,2.57C55.47,32.12,58.68,34.6,59.75,38.88ZM29.9,40.31A10.55,10.55,0,1,0,19.33,29.67,10.62,10.62,0,0,0,29.9,40.31Z"/><path class="cls-2" d="M26.65,124.84c-.13-2.75-.12-5.5-.2-8.25-.06-2,0-4.1,0-6.21l-1.92.4a12.54,12.54,0,0,1-6.13-.66c-4.63-1.32-7.93-4.36-10.65-8.18a44.19,44.19,0,0,1-5.4-10.41c-.08-.22-.14-.45-.2-.67a1.74,1.74,0,0,1,0-.33,4.62,4.62,0,0,1,.74-.06A36.22,36.22,0,0,1,19.39,95.3,21.72,21.72,0,0,1,26,101.84l.37.5C26.23,87.06,26.13,72,26,56.91a1.93,1.93,0,0,1,.21-.64,26.63,26.63,0,0,0,3.55-7.48c0-.09.07-.18.19-.47a33.61,33.61,0,0,0,3.48,8.25v45.21a23.73,23.73,0,0,1,10.62-8.45,38.42,38.42,0,0,1,13.42-2.86,4.6,4.6,0,0,1-.14.75c-2.06,5.71-4.88,11-9.4,15.15a17.48,17.48,0,0,1-11.48,4.55,17.69,17.69,0,0,1-3.09-.42c0,.24,0,.51,0,.78,0,3.66-.12,6.88-.15,10.55,0,.85,0,2.16,0,3Z"/><path class="cls-3" d="M29.9,40.31A10.58,10.58,0,0,1,19.33,29.67,10.57,10.57,0,1,1,29.9,40.31Z"/></g></g></svg>