<?xml version="1.0" encoding="utf-8"?>
<!-- Generator: Adobe Illustrator 24.1.1, SVG Export Plug-In . SVG Version: 6.00 Build 0)  -->
<svg version="1.1" id="X" xmlns="http://www.w3.org/2000/svg" xmlns:xlink="http://www.w3.org/1999/xlink" x="0px" y="0px"
	 viewBox="0 0 169 169" style="enable-background:new 0 0 169 169;" xml:space="preserve">
<style type="text/css">
	.st0{fill:#BC091B;}
</style>
<path class="st0" d="M102.18,84.5l63.16-63.16c4.88-4.88,4.88-12.8,0-17.68c-4.88-4.88-12.8-4.88-17.68,0L84.5,66.82L21.34,3.66
	c-4.88-4.88-12.8-4.88-17.68,0c-4.88,4.88-4.88,12.8,0,17.68L66.82,84.5L3.66,147.66c-4.88,4.88-4.88,12.8,0,17.68
	C6.1,167.78,9.3,169,12.5,169s6.4-1.22,8.84-3.66l63.16-63.16l63.16,63.16c2.44,2.44,5.64,3.66,8.84,3.66s6.4-1.22,8.84-3.66
	c4.88-4.88,4.88-12.8,0-17.68L102.18,84.5z"/>
<g>
</g>
<g>
</g>
<g>
</g>
<g>
</g>
<g>
</g>
<g>
</g>
<g>
</g>
<g>
</g>
<g>
</g>
<g>
</g>
<g>
</g>
<g>
</g>
<g>
</g>
<g>
</g>
<g>
</g>
</svg>
