<?xml version="1.0" encoding="utf-8"?>
<!-- Generator: Adobe Illustrator 23.0.6, SVG Export Plug-In . SVG Version: 6.00 Build 0)  -->
<svg version="1.1" id="Ebene_1" xmlns="http://www.w3.org/2000/svg" xmlns:xlink="http://www.w3.org/1999/xlink" x="0px" y="0px"
	 viewBox="0 0 200 200" style="enable-background:new 0 0 200 200;" xml:space="preserve">
<style type="text/css">
	.st0{fill:#FFFFFF;}
</style>
<circle id="Kreis_36_" cx="100" cy="100" r="100"/>
<path class="st0" d="M151.63,106c-5.52-10.62-7.65-11.47-7.01-15.3c0.64-3.4,4.25-4.04,4.46-8.29c0.21-2.97-0.85-6.8-1.27-8.07
	c-2.55-9.14-3.82-14.23-6.37-18.48c-7.86-13.17-29.74-20.82-50.99-18.27c-8.29,1.06-31.65,3.82-41.64,23.79
	c-9.77,19.12,1.27,40.79,2.55,43.13c3.61,6.59,5.74,7.01,8.71,12.53c5.95,12.75,1.91,28.26-5.52,42.91c-0.42,0.64,0,1.49,0.85,1.49
	c16.78,0.21,33.78,0.21,50.56,0.42c0.85,0,1.49-0.42,1.91-1.06l8.71-13.6c0.42-0.85,1.27-1.06,2.12-0.85l18.06,5.1
	c1.06,0.21,2.12,0,2.97-0.64c3.19-2.55,4.04-4.67,4.25-6.37c0.21-2.76-1.7-4.46-0.42-6.59c0.85-1.49,1.7-1.91,2.97-2.55
	c1.49-0.85,2.55-1.7,2.76-2.34c0-0.21-0.21-0.85-0.85-1.27l-1.49-1.27l2.76-1.91c0.64-0.21,0.85-0.42,1.06-0.85
	c0.64-1.7-3.19-4.04-2.97-6.37c0.21-2.55,5.74-2.76,7.22-6.37C155.66,113.64,154.18,111.09,151.63,106z M99.15,84.33
	c-1.91,1.06-4.25,0.64-5.52-1.27c-0.21-0.21-0.21-0.42-0.42-0.85l-4.25,0.42l-4.25,9.77L74.3,87.94l-0.42-3.82
	c0.42,0,0.85-0.21,1.06-0.42c1.91-1.06,2.55-3.61,1.27-5.52c-1.06-1.91-3.61-2.55-5.52-1.27s-2.55,3.61-1.27,5.52c0,0,0,0,0.21,0.21
	l-2.76,2.34l-10.62-4.67l4.67-10.62l4.04-0.21c0,0.42,0.21,1.06,0.64,1.49c1.06,1.91,3.61,2.55,5.52,1.27
	c1.91-1.27,2.55-3.61,1.27-5.52c-1.06-1.91-3.61-2.55-5.52-1.27c0,0-0.21,0-0.21,0.21l-2.55-3.19l4.67-10.62l9.77,4.25l2.97-2.55
	c-0.64-1.7,0-3.61,1.7-4.67c1.91-1.06,4.25-0.64,5.52,1.27c1.06,1.91,0.64,4.25-1.27,5.52c-0.21,0-0.21,0.21-0.42,0.21l0.21,4.04
	l9.77,4.25l-4.25,9.77l2.55,3.4c1.7-0.85,4.04-0.21,5.1,1.49C101.49,80.71,101.06,83.05,99.15,84.33z"/>
</svg>
