<svg xmlns="http://www.w3.org/2000/svg" viewBox="0 0 94.19 94.19">
  <path d="M56.06 65.48c-.16.47-.6.79-1.09.79s-.94-.32-1.09-.79L50.3 54.79l-2.83 2.83c-.22.22-.51.34-.82.34H34.19a1.15 1.15 0 010-2.3h11.98l3.82-3.82c.28-.28.69-.4 1.08-.31.39.09.7.38.83.76l3.06 9.18 7.21-21.64c.17-.51.66-.84 1.21-.78.54.05.96.47 1.03 1l2.57 20.56c4.66-4.98 8.44-10.74 9-16.63.27-2.87 1.36-14.2-6.44-19.33-6.01-3.95-15.2-2.86-22.45 3.14-7.25-6-16.44-7.09-22.45-3.14-7.8 5.13-6.72 16.46-6.44 19.33 1.54 16.08 26.77 31.15 28.78 32.21a95.44 95.44 0 0017.93-13.48l-2.17-17.33-6.68 20.1zM88.19 55.65H75.73c-.44 0-.84.25-1.03.64L68.1 69.5l-1.11-8.89c-.67.72-1.36 1.42-2.06 2.11l1.36 10.85c.06.5.45.91.95.99l.2.02c.43 0 .83-.24 1.03-.64l7.99-15.98h11.75c.64 0 1.15-.52 1.15-1.15s-.53-1.16-1.17-1.16z" fill="#fff"/>
  <path d="M66.99 60.61l-2.57-20.56a1.16 1.16 0 00-2.24-.22l-7.21 21.64-3.06-9.18a1.16 1.16 0 00-.83-.76c-.39-.09-.8.02-1.08.31l-3.82 3.82H34.19a1.15 1.15 0 000 2.3h12.46c.31 0 .6-.12.82-.34l2.83-2.83 3.56 10.69c.16.47.6.79 1.09.79s.94-.32 1.09-.79l6.7-20.1 2.17 17.33c.71-.68 1.4-1.38 2.08-2.1z" fill="#3566aa"/>
  <path d="M47.1 0a47.1 47.1 0 100 94.2 47.1 47.1 0 000-94.2zm41.09 57.96H76.44l-7.99 15.98a1.15 1.15 0 01-1.23.62c-.5-.09-.89-.49-.95-.99l-1.36-10.85A95.44 95.44 0 0146.98 76.2c-2.01-1.06-27.25-16.14-28.78-32.21-.27-2.87-1.36-14.2 6.44-19.33 6.01-3.95 15.2-2.86 22.45 3.14 7.25-6 16.44-7.09 22.45-3.14 7.8 5.13 6.72 16.46 6.44 19.33-.56 5.89-4.34 11.65-9 16.63l1.11 8.89 6.6-13.21c.2-.39.6-.64 1.03-.64h12.46a1.15 1.15 0 01.01 2.3z" fill="#3566aa"/>
</svg>
