<svg xmlns="http://www.w3.org/2000/svg" viewBox="0 0 143 143">
  <circle cx="71.5" cy="71.5" r="68" fill="#ececec"/>
  <g fill="#676767">
    <path d="M21.9 25l31.4 4.5s3.7.5 6 2.1c2.3 1.4 4.6 2.7 6.9 4.1l13.2 7.8c1.8 1.1 3.6 2.1 5.5 3.2 1.5.9 3.4 1.8 4.7 3l.3.3c.7.7 1.2 1.6 1.1 2.6 0 3.5-4.5 4.1-7 3.3L57.8 46s-3.9-1.4-7.4-1.2c-5.1-.1-10.8-.4-15.7 1-.3.1-.7.2-1 .4-.4.1-.7.4-.7.8s.2.8.5 1.2c1.6 2.3 3.3 4.6 5.1 6.8 1.5 1.9 3.8 4.1 4.2 6.6.2 1.1-.1 2.3-.9 3.1-.6.6-1.4.9-2.2.9-1 .1-2-.1-2.9-.4L10.7 43"/>
    <path d="M79.3 56.4c.5 1.1 1.1 2.2 1.6 3.4.6 1.3 1.7 2.9 1.2 4.4-.4 1.1-1.7 1.7-2.8 1.6-1.9-.2-3-1.8-4-3.3-2.4-3.3-4.7-6.7-7.1-10l11.1 3.9zm-13.4-4.6c.4 1.7.8 3.4 1.3 5.1l.9 3.6c.3 1.3 1 2.9.6 4.2-.3.9-1.2 1.5-2.1 1.6s-1.9-.2-2.6-.8c-1.7-1.4-2.6-4.2-3.5-6.1L55.1 48l10.8 3.8zm-12.2-4.4l.6 4.8c.3 2.2 1 4.7.8 6.9 0 .6-.2 1.1-.5 1.6-.7.9-2.2 1-3.2.4-1.4-.9-1.7-2.6-2.1-4.1-.4-1.4-.8-2.8-1.1-4.1-.5-1.9-1.1-3.8-1.6-5.7l7.1.2z"/>
  </g>
  <g fill="#676767">
    <path d="M121.1 118.1l-31.4-4.5s-3.7-.5-6-2.1c-2.3-1.4-4.6-2.7-6.9-4.1l-13.2-7.8c-1.8-1.1-3.6-2.1-5.5-3.2-1.5-.9-3.4-1.8-4.7-3l-.3-.3c-.7-.7-1.2-1.6-1.1-2.6 0-3.5 4.5-4.1 7-3.3l26.2 9.9s3.9 1.4 7.4 1.2c5.1.1 10.8.4 15.7-1 .3-.1.7-.2 1-.4.3-.2.5-.5.6-.9 0-.4-.2-.8-.5-1.2-1.6-2.3-3.3-4.6-5.1-6.8-1.5-1.9-3.8-4.1-4.2-6.6-.2-1.1.1-2.3.9-3.1.6-.6 1.4-.9 2.2-.9 1-.1 2 .1 2.9.4l26 22.1"/>
    <path d="M63.8 86.7c-.5-1.1-1.1-2.2-1.6-3.4-.6-1.3-1.7-2.9-1.2-4.4.4-1.1 1.7-1.7 2.8-1.6 1.9.2 3 1.8 4 3.3 2.4 3.3 4.7 6.7 7.1 10l-11.1-3.9zm13.3 4.6c-.4-1.7-.8-3.4-1.3-5.1l-.9-3.6c-.3-1.3-1-2.9-.6-4.2.3-.9 1.2-1.5 2.1-1.6s1.9.2 2.6.8c1.7 1.4 2.6 4.2 3.5 6.1l5.4 11.4-10.8-3.8zm12.2 4.3l-.6-4.8c-.3-2.2-1-4.7-.8-6.9 0-.6.2-1.1.5-1.6.7-.9 2.2-1 3.2-.4 1.4.9 1.7 2.6 2.1 4.1.4 1.4.8 2.8 1.1 4.1.5 1.9 1.1 3.8 1.6 5.7l-7.1-.2z"/>
  </g>
  <circle cx="71.5" cy="71.5" r="68" fill="none" stroke="#616160" stroke-width="7.13" stroke-miterlimit="10"/>
</svg>
