<?xml version="1.0" encoding="utf-8"?>
<!-- Generator: Adobe Illustrator 24.1.1, SVG Export Plug-In . SVG Version: 6.00 Build 0)  -->
<svg version="1.1" id="Ebene_1" xmlns="http://www.w3.org/2000/svg" xmlns:xlink="http://www.w3.org/1999/xlink" x="0px" y="0px"
	 viewBox="0 0 143 143" style="enable-background:new 0 0 143 143;" xml:space="preserve">
<g>
	<defs>
		<circle id="SVGID_1_" cx="71.5" cy="71.5" r="68"/>
	</defs>
	<use xlink:href="#SVGID_1_"  style="overflow:visible;fill:#ECECEC;"/>
	<clipPath id="SVGID_2_">
		<use xlink:href="#SVGID_1_"  style="overflow:visible;"/>
	</clipPath>
	<g style="clip-path:url(#SVGID_2_);">
		<path style="fill:#676767;" d="M16,24.2l37.3,5.3c0,0,3.7,0.5,6,2.1c2.3,1.4,4.6,2.7,6.9,4.1c4.4,2.6,8.8,5.2,13.2,7.8
			c1.8,1.1,3.6,2.1,5.5,3.2c1.5,0.9,3.4,1.8,4.7,3c0.1,0.1,0.2,0.2,0.3,0.3c0.7,0.7,1.2,1.6,1.1,2.6c0,3.5-4.5,4.1-7,3.3l-26.2-9.9
			c0,0-3.9-1.4-7.4-1.2c-5.1-0.1-10.8-0.4-15.7,1c-0.3,0.1-0.7,0.2-1,0.4C33.3,46.3,33,46.6,33,47c0,0.4,0.2,0.8,0.5,1.2
			c1.6,2.3,3.3,4.6,5.1,6.8c1.5,1.9,3.8,4.1,4.2,6.6c0.2,1.1-0.1,2.3-0.9,3.1c-0.6,0.6-1.4,0.9-2.2,0.9c-1,0.1-2-0.1-2.9-0.4
			L10.7,43"/>
		<path style="fill:#676767;" d="M79.3,56.4c0.5,1.1,1.1,2.2,1.6,3.4c0.6,1.3,1.7,2.9,1.2,4.4c-0.4,1.1-1.7,1.7-2.8,1.6
			c-1.9-0.2-3-1.8-4-3.3c-2.4-3.3-4.7-6.7-7.1-10L79.3,56.4z"/>
		<path style="fill:#676767;" d="M65.9,51.8c0.4,1.7,0.8,3.4,1.3,5.1c0.3,1.2,0.6,2.4,0.9,3.6c0.3,1.3,1,2.9,0.6,4.2
			c-0.3,0.9-1.2,1.5-2.1,1.6c-0.9,0.1-1.9-0.2-2.6-0.8c-1.7-1.4-2.6-4.2-3.5-6.1c-1.8-3.8-3.6-7.6-5.4-11.4L65.9,51.8z"/>
		<path style="fill:#676767;" d="M53.7,47.4c0.2,1.6,0.4,3.2,0.6,4.8c0.3,2.2,1,4.7,0.8,6.9c0,0.6-0.2,1.1-0.5,1.6
			c-0.7,0.9-2.2,1-3.2,0.4c-1.4-0.9-1.7-2.6-2.1-4.1c-0.4-1.4-0.8-2.8-1.1-4.1c-0.5-1.9-1.1-3.8-1.6-5.7L53.7,47.4z"/>
	</g>
	<g style="clip-path:url(#SVGID_2_);">
		<path style="fill:#676767;" d="M127,118.9l-37.3-5.3c0,0-3.7-0.5-6-2.1c-2.3-1.4-4.6-2.7-6.9-4.1c-4.4-2.6-8.8-5.2-13.2-7.8
			c-1.8-1.1-3.6-2.1-5.5-3.2c-1.5-0.9-3.4-1.8-4.7-3c-0.1-0.1-0.2-0.2-0.3-0.3c-0.7-0.7-1.2-1.6-1.1-2.6c0-3.5,4.5-4.1,7-3.3
			l26.2,9.9c0,0,3.9,1.4,7.4,1.2c5.1,0.1,10.8,0.4,15.7-1c0.3-0.1,0.7-0.2,1-0.4c0.3-0.2,0.5-0.5,0.6-0.9c0-0.4-0.2-0.8-0.5-1.2
			c-1.6-2.3-3.3-4.6-5.1-6.8c-1.5-1.9-3.8-4.1-4.2-6.6c-0.2-1.1,0.1-2.3,0.9-3.1c0.6-0.6,1.4-0.9,2.2-0.9c1-0.1,2,0.1,2.9,0.4
			l26,22.1"/>
		<path style="fill:#676767;" d="M63.8,86.7c-0.5-1.1-1.1-2.2-1.6-3.4c-0.6-1.3-1.7-2.9-1.2-4.4c0.4-1.1,1.7-1.7,2.8-1.6
			c1.9,0.2,3,1.8,4,3.3c2.4,3.3,4.7,6.7,7.1,10L63.8,86.7z"/>
		<path style="fill:#676767;" d="M77.1,91.3c-0.4-1.7-0.8-3.4-1.3-5.1c-0.3-1.2-0.6-2.4-0.9-3.6c-0.3-1.3-1-2.9-0.6-4.2
			c0.3-0.9,1.2-1.5,2.1-1.6c0.9-0.1,1.9,0.2,2.6,0.8c1.7,1.4,2.6,4.2,3.5,6.1c1.8,3.8,3.6,7.6,5.4,11.4L77.1,91.3z"/>
		<path style="fill:#676767;" d="M89.3,95.6c-0.2-1.6-0.4-3.2-0.6-4.8c-0.3-2.2-1-4.7-0.8-6.9c0-0.6,0.2-1.1,0.5-1.6
			c0.7-0.9,2.2-1,3.2-0.4c1.4,0.9,1.7,2.6,2.1,4.1c0.4,1.4,0.8,2.8,1.1,4.1c0.5,1.9,1.1,3.8,1.6,5.7L89.3,95.6z"/>
	</g>
	<use xlink:href="#SVGID_1_"  style="overflow:visible;fill:none;stroke:#616160;stroke-width:7.1291;stroke-miterlimit:10;"/>
</g>
</svg>
