<svg xmlns="http://www.w3.org/2000/svg" xmlns:xlink="http://www.w3.org/1999/xlink" viewBox="0 0 143 143">
  <circle id="a" cx="71.5" cy="71.5" r="68" fill="#ececec"/>
  <g fill="#676767">
    <path d="M21.9,25l31.4,4.5c0,0,3.7,0.5,6,2.1c2.3,1.4,4.6,2.7,6.9,4.1l13.2,7.8c1.8,1.1,3.6,2.1,5.5,3.2
      c1.5,0.9,3.4,1.8,4.7,3l0.3,0.3c0.7,0.7,1.2,1.6,1.1,2.6c0,3.5-4.5,4.1-7,3.3L57.8,46c0,0-3.9-1.4-7.4-1.2
      c-5.1-0.1-10.8-0.4-15.7,1c-0.3,0.1-0.7,0.2-1,0.4C33.3,46.3,33,46.6,33,47s0.2,0.8,0.5,1.2c1.6,2.3,3.3,4.6,5.1,6.8
      c1.5,1.9,3.8,4.1,4.2,6.6c0.2,1.1-0.1,2.3-0.9,3.1c-0.6,0.6-1.4,0.9-2.2,0.9c-1,0.1-2-0.1-2.9-0.4L10.7,43"/>
    <path d="M79.3,56.4c0.5,1.1,1.1,2.2,1.6,3.4c0.6,1.3,1.7,2.9,1.2,4.4c-0.4,1.1-1.7,1.7-2.8,1.6c-1.9-0.2-3-1.8-4-3.3
      c-2.4-3.3-4.7-6.7-7.1-10C68.2,52.5,79.3,56.4,79.3,56.4z M65.9,51.8c0.4,1.7,0.8,3.4,1.3,5.1l0.9,3.6c0.3,1.3,1,2.9,0.6,4.2
      c-0.3,0.9-1.2,1.5-2.1,1.6s-1.9-0.2-2.6-0.8c-1.7-1.4-2.6-4.2-3.5-6.1L55.1,48L65.9,51.8z M53.7,47.4l0.6,4.8
      c0.3,2.2,1,4.7,0.8,6.9c0,0.6-0.2,1.1-0.5,1.6c-0.7,0.9-2.2,1-3.2,0.4c-1.4-0.9-1.7-2.6-2.1-4.1c-0.4-1.4-0.8-2.8-1.1-4.1
      c-0.5-1.9-1.1-3.8-1.6-5.7C46.6,47.2,53.7,47.4,53.7,47.4z"/>
  </g>
  <g fill="#676767">
    <path d="M121.1,118.1l-31.4-4.5c0,0-3.7-0.5-6-2.1c-2.3-1.4-4.6-2.7-6.9-4.1l-13.2-7.8c-1.8-1.1-3.6-2.1-5.5-3.2
      c-1.5-0.9-3.4-1.8-4.7-3l-0.3-0.3c-0.7-0.7-1.2-1.6-1.1-2.6c0-3.5,4.5-4.1,7-3.3l26.2,9.9c0,0,3.9,1.4,7.4,1.2
      c5.1,0.1,10.8,0.4,15.7-1c0.3-0.1,0.7-0.2,1-0.4c0.3-0.2,0.5-0.5,0.6-0.9c0-0.4-0.2-0.8-0.5-1.2c-1.6-2.3-3.3-4.6-5.1-6.8
      c-1.5-1.9-3.8-4.1-4.2-6.6c-0.2-1.1,0.1-2.3,0.9-3.1c0.6-0.6,1.4-0.9,2.2-0.9c1-0.1,2,0.1,2.9,0.4l26,22.1"/>
    <path d="M63.8,86.7c-0.5-1.1-1.1-2.2-1.6-3.4c-0.6-1.3-1.7-2.9-1.2-4.4c0.4-1.1,1.7-1.7,2.8-1.6c1.9,0.2,3,1.8,4,3.3
      c2.4,3.3,4.7,6.7,7.1,10C74.9,90.6,63.8,86.7,63.8,86.7z M77.1,91.3c-0.4-1.7-0.8-3.4-1.3-5.1l-0.9-3.6c-0.3-1.3-1-2.9-0.6-4.2
      c0.3-0.9,1.2-1.5,2.1-1.6s1.9,0.2,2.6,0.8c1.7,1.4,2.6,4.2,3.5,6.1l5.4,11.4C87.9,95.1,77.1,91.3,77.1,91.3z M89.3,95.6l-0.6-4.8
      c-0.3-2.2-1-4.7-0.8-6.9c0-0.6,0.2-1.1,0.5-1.6c0.7-0.9,2.2-1,3.2-0.4c1.4,0.9,1.7,2.6,2.1,4.1c0.4,1.4,0.8,2.8,1.1,4.1
      c0.5,1.9,1.1,3.8,1.6,5.7C96.4,95.8,89.3,95.6,89.3,95.6z"/>
  </g>
  <circle id="a" cx="71.5" cy="71.5" r="68" fill="none" stroke="#616160" stroke-width="7.13" stroke-miterlimit="10"/>
</svg>
