<svg xmlns="http://www.w3.org/2000/svg" viewBox="0 0 91.47 175.57"><defs><style>.cls-1{fill:#39ac6e;}.cls-2{fill:#3568ad;}</style></defs><g id="Ebene_2" data-name="Ebene 2"><g id="Blatt"><path class="cls-1" d="M7.29,175.57H0l.13-3.08c0-.44.13-1.28.2-1.69a22.66,22.66,0,0,1,7.22-13.68,30,30,0,0,1,4.36-3,15.6,15.6,0,0,1,6.84-2.34,61.18,61.18,0,0,1,7.66-.16,31.81,31.81,0,0,1,9.46,1.78c.26.09.86.22,1.06.59-.1,1-5.31,5.44-8.28,7.53a29.07,29.07,0,0,1-8.26,4.35,20.55,20.55,0,0,1-10.7,0C7.8,165.45,8.16,165.1,8,167c-.1,1.26-.14,2.53-.24,3.79C7.63,172.41,7.45,174,7.29,175.57Z"/></g><g id="Giesskanne"><path class="cls-2" d="M46.49,0h3.7a.72.72,0,0,0,.2.09A23.21,23.21,0,0,1,60.93,3.76a35,35,0,0,1,8.55,7.37,66.59,66.59,0,0,1,9,13.95c2.09,4.35,3.75,8.86,5.4,13.38a5.68,5.68,0,0,0,1,1.61c1.83,1.93,3.71,3.81,5.55,5.74a4.16,4.16,0,0,1,1,1.44,3,3,0,0,1,0,1.08A5,5,0,0,1,90,50.45Q76.68,63.88,63.34,77.31a5.86,5.86,0,0,1-1.21.94,1.32,1.32,0,0,1-.39.15,3.14,3.14,0,0,1-1.67,0,1,1,0,0,1-.38-.17,5.92,5.92,0,0,1-.7-.55c-1.34-1.24-2.6-2.55-3.88-3.85a3,3,0,0,0-2-.9c-1.45-.12-2.9-.27-4.34-.4l-9.91-.92c-2.85-.27-5.7-.53-8.54-.81s-5.94-.62-8.91-.89c-3.38-.32-6.77-.57-10.15-.9S4.53,68.3,1.16,67.92C.57,67.84.54,67,.49,66.73L.3,62.09a1.06,1.06,0,0,1,1-1.07h20.1l14.13,0h6c.19,0,.44,0,.59-.22s-.12-.36-.24-.48c-1.26-1.27-2.54-2.51-3.79-3.78-3-3-6-6-8.94-9a3.45,3.45,0,0,1,0-4.83c.13-.15.27-.28.41-.42,1.17-1.18,1.1-1,.13-2.23a23.63,23.63,0,0,1-5.15-11,21.53,21.53,0,0,1-.31-6.36,27.61,27.61,0,0,1,4.3-11.77A25.13,25.13,0,0,1,38.09,2.4,22.29,22.29,0,0,1,44.73.24C45.31.14,45.9.08,46.49,0Zm1.67,5.82c-.32,0-.64,0-.95,0a17.85,17.85,0,0,0-10.49,4.46,21.54,21.54,0,0,0-5,6.62A15,15,0,0,0,30,26.22a19.15,19.15,0,0,0,4.07,10c.72.87.73.93,1.48,0l.13-.14Q46,25.76,56.28,15.39a2.51,2.51,0,0,1,4,0Q66.54,21.69,72.8,28a.58.58,0,0,0,.46.2c.12,0,.12-.33,0-.54a1.36,1.36,0,0,1-.1-.21,69.59,69.59,0,0,0-6.1-10,32.93,32.93,0,0,0-9.36-8.82A18.35,18.35,0,0,0,48.16,5.82Z"/></g></g></svg>