<?xml version="1.0" encoding="utf-8"?>
<!-- Generator: Adobe Illustrator 23.0.6, SVG Export Plug-In . SVG Version: 6.00 Build 0)  -->
<svg version="1.1" id="Ebene_1" xmlns="http://www.w3.org/2000/svg" xmlns:xlink="http://www.w3.org/1999/xlink" x="0px" y="0px"
	 viewBox="0 0 351 66" enable-background="new 0 0 351 66" xml:space="preserve">
<polyline fill="#FFFFFF" points="11.98,64.59 0.22,16.77 15.07,16.77 20.64,52.04 20.81,52.04 26.47,16.77 40.8,16.77 28.95,64.59 
	11.98,64.59 "/>
<path fill="#FFFFFF" d="M65.66,53.01c0.72-2.39,1.05-6.48,1-12.28c0.06-5.84-0.28-9.96-1-12.36c-0.72-2.4-2.15-3.55-4.31-3.48
	c-2.09-0.06-3.53,1.11-4.33,3.54c-0.81,2.42-1.18,6.48-1.15,12.21c-0.03,5.77,0.34,9.86,1.15,12.29c0.8,2.43,2.24,3.61,4.33,3.54
	C63.5,56.54,64.94,55.39,65.66,53.01 M61.26,65.83c-5.75-0.04-10.05-1.15-12.89-3.31c-2.85-2.15-4.71-5.11-5.6-8.86
	c-0.9-3.75-1.3-8.04-1.23-12.86c-0.06-4.82,0.42-9.13,1.44-12.92c1.02-3.8,2.95-6.79,5.81-8.99c2.86-2.2,7.02-3.32,12.46-3.37
	c5.76,0.04,10.05,1.14,12.89,3.3c2.84,2.16,4.71,5.12,5.61,8.87c0.9,3.75,1.3,8.03,1.22,12.86c0.06,4.82-0.41,9.13-1.44,12.92
	c-1.02,3.8-2.96,6.79-5.81,8.99C70.86,64.66,66.71,65.79,61.26,65.83"/>
<rect x="84.76" y="1.47" fill="#FFFFFF" width="14.32" height="63.13"/>
<polyline fill="#FFFFFF" points="131.62,64.59 122.68,46.56 118.97,51.6 118.97,64.59 104.65,64.59 104.65,1.47 118.97,1.47 
	118.97,33.91 119.15,33.91 129.85,16.77 145.58,16.77 131.88,36.04 147.27,64.59 131.62,64.59 "/>
<path fill="#FFFFFF" d="M164.29,65.83c-6.36,0-11.01-1.19-13.91-3.58c-2.91-2.39-4.34-5.97-4.3-10.74v-2.13h12.73
	c0.02,2.16,0.34,3.95,0.98,5.39c0.72,1.4,2.19,2.15,4.42,2.21c1.69-0.03,2.96-0.49,3.82-1.4c0.87-0.9,1.3-2.05,1.31-3.46
	c0.05-1.12-0.31-2.18-1.09-3.19c-0.77-1-2.23-1.89-4.4-2.65c-3.92-1.27-7.16-2.53-9.74-3.77c-2.58-1.25-4.51-2.84-5.77-4.76
	c-1.27-1.92-1.9-4.53-1.9-7.83c0.04-4.78,1.64-8.37,4.8-10.79c3.16-2.41,7.63-3.62,13.42-3.62c4.44,0.03,7.93,0.68,10.47,1.95
	c2.52,1.26,4.31,2.91,5.35,4.93c1.04,2.03,1.54,4.22,1.51,6.55v1.6h-12.74v-0.89c-0.01-2.04-0.41-3.44-1.22-4.21
	c-0.8-0.77-1.96-1.13-3.47-1.1c-1.86,0.03-3.15,0.44-3.86,1.26c-0.7,0.8-1.04,1.86-1,3.17c0.06,1.64,0.85,2.88,2.38,3.7
	c1.53,0.82,3.42,1.54,5.68,2.15c2.26,0.61,4.52,1.43,6.78,2.44c2.26,1.01,4.15,2.54,5.67,4.57c1.53,2.02,2.32,4.87,2.38,8.54
	c-0.02,4.87-1.59,8.68-4.71,11.44C174.77,64.38,170.25,65.79,164.29,65.83"/>
<path fill="#FFFFFF" d="M209.6,64.59V31.97c-0.06-3.55-1.45-5.38-4.16-5.48c-1.41-0.01-2.61,0.54-3.59,1.65
	c-0.98,1.11-1.5,2.83-1.53,5.16v31.3h-14.33V1.47h14.33v20.52h0.18c1.16-2.32,2.66-3.98,4.52-4.98c1.86-1.01,4-1.5,6.44-1.47
	c4.08-0.03,7.17,1.03,9.28,3.18c2.11,2.15,3.17,5.5,3.18,10.08v35.8H209.6"/>
<path fill="#FFFFFF" d="M229.48,11.73V0.76h14.33v10.96H229.48 M229.48,64.59V16.77h14.33v47.83H229.48"/>
<rect x="249.73" y="1.47" fill="#FFFFFF" width="14.32" height="63.13"/>
<path fill="#FFFFFF" d="M271.47,64.58V26.66h-5.92v-9.91h5.92v-3.98c-0.04-2.93,0.36-5.33,1.19-7.18c0.83-1.85,2.3-3.21,4.43-4.08
	c2.12-0.87,5.12-1.3,8.97-1.29c1.31,0,2.47,0.02,3.48,0.06c1.01,0.05,1.97,0.12,2.88,0.2v9.64h-2.03c-1.9-0.02-3.15,0.24-3.76,0.79
	c-0.61,0.54-0.88,1.49-0.84,2.84v3h6.63v9.91h-6.63v37.92H271.47"/>
<path fill="#FFFFFF" d="M306.98,27.12c-0.72,1.81-1.05,4.34-0.98,7.6h10.34c0.05-3.38-0.26-5.94-0.93-7.69
	c-0.67-1.76-1.98-2.64-3.92-2.66C309.2,24.4,307.69,25.32,306.98,27.12 M311.12,65.83c-5.92-0.07-10.27-1.33-13.06-3.8
	c-2.79-2.48-4.57-5.74-5.36-9.78c-0.79-4.06-1.13-8.49-1.04-13.3c-0.04-4.52,0.48-8.54,1.58-12.05c1.1-3.51,3.08-6.28,5.91-8.29
	c2.83-2.02,6.82-3.04,11.96-3.08c5.83,0.03,10.11,1.21,12.82,3.51c2.73,2.3,4.46,5.52,5.21,9.62c0.74,4.11,1.07,8.9,0.98,14.36H306
	v2.92c-0.05,3.71,0.3,6.48,1.05,8.31c0.74,1.83,2.13,2.74,4.17,2.74c1.82,0.01,3.11-0.69,3.87-2.12c0.75-1.43,1.21-3.63,1.34-6.63
	h13.26c-0.15,5.91-1.79,10.33-4.94,13.24c-3.13,2.9-7.67,4.35-13.58,4.35H311.12"/>
<rect x="337.21" y="48.68" fill="#FFFFFF" width="13.79" height="15.91"/>
</svg>
