<?xml version="1.0" encoding="utf-8"?>
<!-- Generator: Adobe Illustrator 23.0.6, SVG Export Plug-In . SVG Version: 6.00 Build 0)  -->
<svg version="1.1" id="Ebene_1" xmlns="http://www.w3.org/2000/svg" xmlns:xlink="http://www.w3.org/1999/xlink" x="0px" y="0px"
	 viewBox="0 0 200 200" enable-background="new 0 0 200 200" xml:space="preserve">
<g>
	<g transform="matrix(1, 0, 0, 1, 1005.4, 688.4)">
		<path id="Kreis-2_1_" fill="#FFD700" d="M-905.4-688.4c55.23,0,100,44.77,100,100s-44.77,100-100,100s-100-44.77-100-100l0,0
			C-1005.4-643.63-960.63-688.4-905.4-688.4z"/>
	</g>
	<g>
		<path fill="#BEBEBE" stroke="#707070" stroke-width="2.2573" d="M135.28,148.47c0,1.87-1.52,3.39-3.39,3.39H61.02
			c-1.87,0-3.39-1.52-3.39-3.39V52.58c0-1.87,1.52-3.39,3.39-3.39h53.95l20.32,20.32V148.47z"/>
		<path fill="#707070" stroke="#707070" stroke-width="2.2573" d="M135.28,69.51h-17.07c-1.79,0-3.25-1.45-3.25-3.25V49.19"/>
		<g id="Rechteck_868_2_" transform="translate(9.374 9.77)">
			<path fill="#707070" d="M46.83,53.83h44.81c3.37,0,6.1,2.73,6.1,6.1v17.66c0,3.37-2.73,6.1-6.1,6.1H46.83
				c-3.37,0-6.1-2.73-6.1-6.1V59.92C40.74,56.56,43.46,53.83,46.83,53.83z"/>
			<path fill="#707070" stroke="#707070" stroke-width="3.0483" d="M46.83,55.35h44.81c2.53,0,4.57,2.05,4.57,4.57v17.66
				c0,2.53-2.05,4.57-4.57,4.57H46.83c-2.53,0-4.57-2.05-4.57-4.57V59.92C42.26,57.4,44.31,55.35,46.83,55.35z"/>
		</g>
		<g>
			
				<line fill="none" stroke="#707070" stroke-width="14.691" stroke-linecap="square" stroke-miterlimit="10" x1="134.47" y1="94.37" x2="134.47" y2="109.06"/>
			<path fill="#707070" d="M148.75,109.06h-28.8c-1.52,1.52-1.52,3.98,0,5.5l11.65,11.65c1.52,1.52,3.98,1.52,5.5,0l11.65-11.65
				C150.27,113.04,150.27,110.58,148.75,109.06z"/>
		</g>
		<text transform="matrix(1 0 0 1 54.0926 88.1137)" fill="#FFFFFF" font-family="'ArialMT'" font-size="24.5168px">PDF</text>
	</g>
</g>
</svg>
