<svg xmlns="http://www.w3.org/2000/svg" viewBox="0 0 109.52 307.29">
  <path d="M70.06 92.5a19.6 19.6 0 0018.86-14.26 129.37 129.37 0 004.17-21.52 111 111 0 00.69-17.16c-.26-9.9-1.64-19.76-4.16-29.48-.98-3.8.85-7.93 4.46-9.45a7.85 7.85 0 0110.67 5.24 146.3 146.3 0 013.95 52.5c-1.46 13.75-4.15 28.41-11.93 39.91l-.15.22c-8.02 11.67-12.6 25.35-12.6 39.51v31.09a.1.1 0 01-.1.1H25.61a.1.1 0 01-.1-.1v-31.08c0-14.16-4.58-27.84-12.6-39.51l-.15-.22C4.97 86.78 2.29 72.13.82 58.37a146.28 146.28 0 013.95-52.5A7.85 7.85 0 0115.43.62c3.62 1.52 5.45 5.65 4.46 9.45a131.56 131.56 0 00-4.16 29.48c-.14 5.52-.14 9.38.69 17.16.57 5.35 1.64 12.16 3.75 19.99a21.24 21.24 0 0020.48 15.79h29.41zM84.16 173.96l1.6 119.21a14.13 14.13 0 11-28.26 0V196.8h-5.49v96.36a14.13 14.13 0 11-28.26 0l1.89-119.21"/>
  <circle cx="54.9" cy="63.95" r="23.51"/>
</svg>
