<svg xmlns="http://www.w3.org/2000/svg" viewBox="0 0 130.9 313.1"><path d="M98.6 156.7l1.9 139.9c0 9.2-7.4 16.6-16.6 16.6s-16.6-7.4-16.6-16.6V183.5h-6.4v113.1c0 9.2-7.4 16.6-16.6 16.6s-16.6-7.4-16.6-16.6l2.2-139.9"/><path d="M127.5 122.8c-1.7-16.1-4.9-33.3-14-46.8-3.3-4.8-7.6-9-10.7-11.7-2.6-2.2-5.8-3.4-9.2-3.4H34.9c-3.4 0-6.6 1.2-9.2 3.4C22.5 67 18.2 71.2 15 76 5.8 89.5 2.7 106.7 1 122.8c-2.2 20.6-.6 41.4 4.6 61.6a9.28 9.28 0 0012.5 6.2c4.2-1.8 6.4-6.6 5.2-11.1-2.9-11.4-4.6-23-4.9-34.6-.2-6.5-.2-11 .8-20.1 1.1-10.1 3.7-24.6 10.4-41.4 0-.1.2-.1.2 0v67.5c0 .1.1.1.1.1h68.4c.1 0 .1-.1.1-.1V83.4c0-.1.2-.2.2 0 6.7 16.8 9.3 31.3 10.4 41.4 1 9.1 1 13.7.8 20.1-.3 11.6-1.9 23.2-4.9 34.6-1.2 4.5 1 9.3 5.2 11.1 1.2.5 2.4.7 3.6.7 4.1 0 7.8-2.7 8.9-6.9 5.6-20.2 7.1-40.9 4.9-61.6z"/><circle cx="64.2" cy="27.6" r="27.6"/></svg>