<?xml version="1.0" encoding="utf-8"?>
<!-- Generator: Adobe Illustrator 23.0.6, SVG Export Plug-In . SVG Version: 6.00 Build 0)  -->
<svg version="1.1" id="Ebene_1" xmlns="http://www.w3.org/2000/svg" xmlns:xlink="http://www.w3.org/1999/xlink" x="0px" y="0px"
	 viewBox="0 0 47.4 131.2" enable-background="new 0 0 47.4 131.2" xml:space="preserve">
<path d="M11.3,73.8l-0.7,51c0,3.3,2.7,6,6,6s6-2.7,6-6v-41h2.3v40.8c0,3.3,2.7,6,6,6s6-2.7,6-6l-0.7-51H11.3V73.8z"/>
<path d="M46.7,61.5c-0.6-5.8-1.8-12-5.1-16.9c-1.2-1.7-2.7-3.2-3.9-4.2c-0.9-0.8-2.1-1.2-3.3-1.2h-4.2h-4h-4.9h-4h-4.2
	c-1.2,0-2.4,0.4-3.3,1.2c-1.2,1-2.7,2.5-3.9,4.2c-3.3,4.9-4.5,11.1-5.1,16.9C0.1,69,0.6,76.4,2.5,83.8c0.4,1.5,1.7,2.5,3.2,2.5
	c0.4,0,0.9-0.1,1.3-0.3c1.5-0.6,2.3-2.4,1.9-4c-1-4.2-1.6-8.3-1.7-12.5c-0.1-2.4-0.1-4,0.3-7.3c0.4-3.6,1.4-8.8,3.8-14.9
	c0-0.1,0.1,0,0.1,0v11.1v13.2h9.9h4.9h9.9V58.4V47.3c0,0,0.1-0.1,0.1,0c2.4,6.1,3.4,11.3,3.8,14.9c0.4,3.3,0.4,4.9,0.3,7.3
	c-0.1,4.2-0.7,8.3-1.7,12.5c-0.4,1.6,0.4,3.4,1.9,4c0.4,0.2,0.9,0.3,1.3,0.3c1.5,0,2.8-1,3.2-2.5C46.9,76.4,47.4,69,46.7,61.5z"/>
<path d="M23.7,17c-5.5,0-10,4.5-10,10c0,5.5,4.5,10,10,10c5.5,0,10-4.5,10-10C33.7,21.5,29.2,17,23.7,17z M29.5,30.6
	c-0.5,0.3-1.2,0.2-1.5-0.4c-0.1-0.1-0.1-0.1-0.1-0.2l-1.2,0.1l-1.2,2.7l-2.9-1.2l-0.1-1.1c0.1,0,0.2-0.1,0.3-0.1
	c0.5-0.3,0.7-1,0.4-1.5c-0.3-0.5-1-0.7-1.5-0.4s-0.7,1-0.4,1.5c0,0,0,0,0.1,0.1l-0.8,0.7l-3-1.3l1.3-3l1.1-0.1
	c0,0.1,0.1,0.3,0.2,0.4c0.3,0.5,1,0.7,1.5,0.4c0.5-0.4,0.7-1,0.4-1.5c-0.3-0.5-1-0.7-1.5-0.4c0,0-0.1,0-0.1,0.1l-0.7-0.9l1.3-3
	l2.7,1.2l0.8-0.7c-0.2-0.5,0-1,0.5-1.3c0.5-0.3,1.2-0.2,1.5,0.4c0.3,0.5,0.2,1.2-0.4,1.5c-0.1,0-0.1,0.1-0.1,0.1l0.1,1.1l2.7,1.2
	l-1.2,2.7l0.7,0.9c0.5-0.2,1.1-0.1,1.4,0.4C30.1,29.6,30,30.3,29.5,30.6z"/>
</svg>
