<svg xmlns="http://www.w3.org/2000/svg" viewBox="0 0 109.52 307.29"><path class="st0" d="M25.5 173.96l-1.6 119.21a14.13 14.13 0 1028.26 0V196.8h5.49v96.36a14.13 14.13 0 1028.26 0l-1.89-119.21"/><path class="st0" d="M108.7 145.18c-1.46-13.74-4.15-28.38-11.93-39.88a52.38 52.38 0 00-9.13-9.94 12 12 0 00-7.82-2.87H39.41A19.6 19.6 0 0120.6 78.23a129.37 129.37 0 01-4.17-21.52 111 111 0 01-.69-17.16c.26-9.9 1.64-19.76 4.16-29.48.98-3.8-.85-7.93-4.46-9.45A7.85 7.85 0 004.77 5.87a146.3 146.3 0 00-3.95 52.5c1.46 13.75 4.15 28.41 11.93 39.91l.15.22c8.02 11.67 12.6 25.35 12.6 39.51v29.43l-.33 1.79c.06 0 58.84-.05 58.84-.1v-57.5c0-.11.16-.14.2-.03a131.82 131.82 0 018.87 35.25c.83 7.78.83 11.64.69 17.15a130.73 130.73 0 01-4.16 29.45c-.98 3.79.85 7.92 4.46 9.44a7.87 7.87 0 0010.66-5.25 145.62 145.62 0 003.97-52.46z"/><circle class="st0" cx="54.76" cy="63.95" r="23.51"/></svg>