<svg version="1.1" id="Ebene_1" xmlns="http://www.w3.org/2000/svg" xmlns:xlink="http://www.w3.org/1999/xlink" x="0px" y="0px"
	 viewBox="0 0 47.3 130.2" style="enable-background:new 0 0 47.3 130.2;" xml:space="preserve">
<path style="fill:none;stroke:#616160;stroke-width:1.4173;stroke-miterlimit:10;" d="M30.1,39.5c3.7,0,6.9-2.4,7.9-6
	c1-3.6,1.5-6.6,1.7-9c0.3-3.3,0.3-4.9,0.3-7.2c-0.1-4.1-0.7-8.3-1.7-12.3c-0.4-1.6,0.4-3.3,1.9-4c0.4-0.2,0.9-0.3,1.3-0.3
	c1.5,0,2.8,1,3.2,2.5c1.9,7.2,2.4,14.6,1.7,22c-0.6,5.8-1.7,11.9-5,16.7c0,0,0,0.1-0.1,0.1c-3.4,4.9-5.3,10.6-5.3,16.6v13
	c0,0,0,0,0,0H11.4c0,0,0,0,0,0v-13c0-5.9-1.9-11.7-5.3-16.6c0,0,0-0.1-0.1-0.1c-3.3-4.8-4.4-11-5-16.7c-0.8-7.4-0.2-14.8,1.7-22
	c0.4-1.5,1.7-2.5,3.2-2.5c0.4,0,0.9,0.1,1.3,0.3c1.5,0.6,2.3,2.4,1.9,4C8,9,7.4,13.1,7.3,17.3c-0.1,2.3-0.1,3.9,0.3,7.2
	c0.2,2.2,0.7,5.1,1.6,8.4c1,3.9,4.6,6.6,8.6,6.6H30.1z"/>
<path style="fill:none;stroke:#616160;stroke-width:1.4424;stroke-miterlimit:10;" d="M36,71.6l0.7,51.7c0,3.4-2.6,6.1-5.9,6.1
	s-5.9-2.7-5.9-6.1V81.5h-2.3v41.8c0,3.4-2.6,6.1-5.9,6.1s-5.9-2.7-5.9-6.1l0.8-51.7"/>
<path style="fill:#ADB9C9;" d="M10.7,73.6"/>
<circle style="fill:none;stroke:#616160;stroke-width:1.4173;stroke-miterlimit:10;" cx="23.7" cy="27.5" r="9.8"/>
</svg>
