<svg version="1.1" id="Ebene_1" xmlns="http://www.w3.org/2000/svg" xmlns:xlink="http://www.w3.org/1999/xlink" x="0px" y="0px"
	 viewBox="0 0 47.3 130.2" style="enable-background:new 0 0 47.3 130.2;" xml:space="preserve">
<path style="fill:none;stroke:#616160;stroke-width:1.4678;stroke-miterlimit:10;" d="M11.4,71.6l-0.7,51.7c0,3.4,2.6,6.1,5.9,6.1
	s5.9-2.7,5.9-6.1V81.5h2.3v41.8c0,3.4,2.6,6.1,5.9,6.1s5.9-2.7,5.9-6.1l-0.8-51.7"/>
<circle style="fill:none;stroke:#616160;stroke-width:1.4173;stroke-miterlimit:10;" cx="23.6" cy="27.5" r="9.8"/>
<path style="fill:none;stroke:#616160;stroke-width:1.4173;stroke-miterlimit:10;" d="M46.2,61.5c-0.6-5.8-1.7-11.9-5-16.7
	c-1.2-1.7-2.7-3.2-3.8-4.2c-0.9-0.8-2.1-1.2-3.3-1.2H23.6v0h-6.4c-3.7,0-6.9-2.4-7.9-6c-1-3.6-1.5-6.6-1.7-9
	c-0.3-3.3-0.3-4.9-0.3-7.2C7.4,13.1,8,9,9,4.9c0.4-1.6-0.4-3.3-1.9-4C6.7,0.8,6.3,0.7,5.9,0.7c-1.5,0-2.8,1-3.2,2.5
	c-1.9,7.2-2.4,14.6-1.7,22c0.6,5.8,1.7,11.9,5,16.7c0,0,0,0.1,0.1,0.1c3.4,4.9,5.3,10.6,5.3,16.6v13c0,0,0,0,0,0h12.2v0h12.2
	c0,0,0,0,0,0V47.5c0,0,0.1-0.1,0.1,0c2.4,6,3.3,11.2,3.7,14.8c0.3,3.3,0.3,4.9,0.3,7.2c-0.1,4.1-0.7,8.3-1.7,12.3
	c-0.4,1.6,0.4,3.3,1.9,4c0.4,0.2,0.9,0.3,1.3,0.3c1.5,0,2.8-1,3.2-2.5C46.5,76.3,47,68.9,46.2,61.5z"/>
</svg>
