<?xml version="1.0" encoding="utf-8"?>
<!-- Generator: Adobe Illustrator 23.0.6, SVG Export Plug-In . SVG Version: 6.00 Build 0)  -->
<svg version="1.1" id="Ebene_1" xmlns="http://www.w3.org/2000/svg" xmlns:xlink="http://www.w3.org/1999/xlink" x="0px" y="0px"
	 viewBox="0 0 47.4 131.2" enable-background="new 0 0 47.4 131.2" xml:space="preserve">
<circle cx="23.7" cy="27" r="10"/>
<path d="M11.3,73.8l-0.7,51c0,3.3,2.7,6,6,6s6-2.7,6-6v-41h2.3v40.8c0,3.3,2.7,6,6,6s6-2.7,6-6l-0.7-51H11.3V73.8z"/>
<path d="M46.7,61.5c-0.6-5.8-1.8-12-5.1-16.9c-1.2-1.7-2.7-3.2-3.9-4.2c-0.9-0.8-2.1-1.2-3.3-1.2h-4.2h-4h-4.9h-4h-4.2
	c-1.2,0-2.4,0.4-3.3,1.2c-1.2,1-2.7,2.5-3.9,4.2c-3.3,4.9-4.5,11.1-5.1,16.9C0.1,69,0.6,76.4,2.5,83.8c0.4,1.5,1.7,2.5,3.2,2.5
	c0.4,0,0.9-0.1,1.3-0.3c1.5-0.6,2.3-2.4,1.9-4c-1-4.2-1.6-8.3-1.7-12.5c-0.1-2.4-0.1-4,0.3-7.3c0.4-3.6,1.4-8.8,3.8-14.9
	c0-0.1,0.1,0,0.1,0v11.1v13.2h9.9h4.9h9.9V58.4V47.3c0,0,0.1-0.1,0.1,0c2.4,6.1,3.4,11.3,3.8,14.9c0.4,3.3,0.4,4.9,0.3,7.3
	c-0.1,4.2-0.7,8.3-1.7,12.5c-0.4,1.6,0.4,3.4,1.9,4c0.4,0.2,0.9,0.3,1.3,0.3c1.5,0,2.8-1,3.2-2.5C46.9,76.4,47.4,69,46.7,61.5z"/>
<g>
	<path fill="#FFFFFF" d="M15.7,56.7v-7.1h1.9v7.1H15.7z"/>
	<path fill="#FFFFFF" d="M22.3,51c-0.5,0-0.8,0.2-1.1,0.6s-0.4,0.9-0.4,1.6c0,1.4,0.5,2.1,1.6,2.1c0.3,0,0.6,0,0.9-0.1
		s0.6-0.2,0.9-0.3v1.6c-0.6,0.3-1.3,0.4-2,0.4c-1.1,0-1.9-0.3-2.5-0.9c-0.6-0.6-0.9-1.5-0.9-2.7c0-0.7,0.1-1.4,0.4-1.9
		c0.3-0.6,0.7-1,1.2-1.3s1.1-0.5,1.8-0.5c0.8,0,1.5,0.2,2.2,0.5L24,51.5c-0.3-0.1-0.5-0.2-0.8-0.3S22.6,51,22.3,51z"/>
	<path fill="#FFFFFF" d="M31.8,56.7h-1.9v-2.9h-2.2v2.9h-1.9v-7.1h1.9v2.6h2.2v-2.6h1.9V56.7z"/>
</g>
</svg>
