<svg version="1.1" id="Ebene_1" xmlns="http://www.w3.org/2000/svg" xmlns:xlink="http://www.w3.org/1999/xlink" x="0px" y="0px"
	 viewBox="0 0 47.4 131.2" style="enable-background:new 0 0 46.4 130.2;" xml:space="preserve">
<circle class="st0" cx="23.2" cy="27.1" r="10"/>
<g transform="translate(0.5,0.5)">
	<path stroke-location="inline" class="st0" d="M44.4,2.5C44,1,42.7,0,41.2,0c-0.4,0-0.9,0.1-1.3,0.3c-1.5,0.6-2.3,2.4-1.9,4c1.1,4.1,1.7,8.3,1.8,12.5
		c0.1,2.3,0.1,4-0.3,7.3c-0.3,2.4-0.8,5.5-1.8,9.1c-1,3.6-4.3,6-8,6H17.2c-4.1,0-7.6-2.8-8.7-6.7C7.7,29.2,7.2,26.3,7,24
		c-0.4-3.3-0.4-4.9-0.3-7.3c0.1-4.2,0.7-8.4,1.8-12.5c0.4-1.6-0.4-3.4-1.9-4C6.1,0.1,5.7,0,5.2,0C3.8,0,2.4,1,2,2.5
		C0.1,9.8-0.4,17.3,0.3,24.7c0.6,5.8,1.8,12,5.1,16.9c0,0,0,0.1,0.1,0.1c3.4,4.9,5.3,10.7,5.3,16.7v12.8h24.8V58.5
		c0-6,1.9-11.8,5.3-16.7c0,0,0-0.1,0.1-0.1c3.3-4.9,4.4-11.1,5.1-16.9C46.9,17.3,46.3,9.8,44.4,2.5z"/>
	<path class="st0" d="M10.8,73.3l-0.7,51c0,3.3,2.7,6,6,6s6-2.7,6-6V83.4h2.3v40.8c0,3.3,2.7,6,6,6s6-2.7,6-6l-0.7-51H10.8z"/>
</g>
</svg>
