<?xml version="1.0" encoding="utf-8"?>
<!-- Generator: Adobe Illustrator 23.0.6, SVG Export Plug-In . SVG Version: 6.00 Build 0)  -->
<svg version="1.1" id="Ebene_1" xmlns="http://www.w3.org/2000/svg" xmlns:xlink="http://www.w3.org/1999/xlink" x="0px" y="0px"
	 viewBox="0 0 47.4 131.2" enable-background="new 0 0 47.4 131.2" xml:space="preserve">
<circle cx="23.7" cy="27" r="10"/>
<path d="M11.3,73.8l-0.7,51c0,3.3,2.7,6,6,6s6-2.7,6-6v-41h2.3v40.8c0,3.3,2.7,6,6,6s6-2.7,6-6l-0.7-51H11.3V73.8z"/>
<path d="M46.6,61.5c-0.6-5.8-1.8-12-5.1-16.9c-1.2-1.7-2.7-3.2-3.9-4.2c-0.9-0.8-2.1-1.2-3.3-1.2H21.2l0,0h-4c-3.7,0-7-2.5-8-6
	c-1-3.6-1.5-6.7-1.8-9.1C7,20.8,7,19.2,7.1,16.8c0.1-4.2,0.7-8.4,1.8-12.5c0.4-1.6-0.4-3.4-1.9-4C6.6,0.1,6.2,0,5.7,0
	C4.3,0,2.9,1,2.5,2.5C0.6,9.8,0.1,17.3,0.8,24.7c0.6,5.8,1.8,12,5.1,16.9c0,0,0,0.1,0.1,0.1c3.4,4.9,5.3,10.7,5.3,16.7v13.2l0,0h9.9
	H36l0,0V47.3c0,0,0.1-0.1,0.1,0c2.4,6.1,3.4,11.3,3.8,14.9c0.4,3.3,0.4,4.9,0.3,7.3c-0.1,4.2-0.7,8.3-1.7,12.5
	c-0.4,1.6,0.4,3.4,1.9,4c0.4,0.2,0.9,0.3,1.3,0.3c1.5,0,2.8-1,3.2-2.5C46.8,76.4,47.3,69,46.6,61.5z"/>
<g>
	<path fill="#FFFFFF" d="M22.7,54.1h-2.7v-1.9h2.7v-2.6h1.9v2.6h2.7v1.9h-2.7v2.6h-1.9V54.1z"/>
</g>
</svg>
