<svg version="1.1" id="Ebene_1" xmlns="http://www.w3.org/2000/svg" xmlns:xlink="http://www.w3.org/1999/xlink" x="0px" y="0px"
	 viewBox="0 0 47.4 131.2" style="enable-background:new 0 0 46.4 130.2;" xml:space="preserve">
<g transform="translate(0.5,0.5)">
<path class="st0" d="M10.8,73.7l-0.7,50.5c0,3.3,2.7,6,6,6s6-2.7,6-6V83.4h2.3v40.8c0,3.3,2.7,6,6,6s6-2.7,6-6l-0.8-50.5H10.8z"/>
<circle class="st0" cx="23.2" cy="27.1" r="10"/>
<path class="st0" d="M46.1,61.5c-0.6-5.8-1.8-12-5.1-16.9c-1.2-1.7-2.7-3.2-3.9-4.2c-0.9-0.8-2.1-1.2-3.3-1.2H20.7v0h-4
	c-3.7,0-7-2.5-8-6c-1-3.6-1.5-6.7-1.8-9.1c-0.4-3.3-0.4-4.9-0.3-7.3c0.1-4.2,0.7-8.4,1.8-12.5c0.4-1.6-0.4-3.4-1.9-4
	C6.1,0.1,5.7,0,5.2,0C3.8,0,2.4,1,2,2.5C0.1,9.8-0.4,17.3,0.3,24.7c0.6,5.8,1.8,12,5.1,16.9c0,0,0,0.1,0.1,0.1
	c3.4,4.9,5.3,10.7,5.3,16.7v13.2c0,0,0,0,0,0h9.9l14.8,0c0,0,0,0,0,0V47.3c0,0,0.1-0.1,0.1,0c2.4,6.1,3.4,11.3,3.8,14.9
	c0.4,3.3,0.4,4.9,0.3,7.3C39.6,73.7,39,77.8,38,82c-0.4,1.6,0.4,3.4,1.9,4c0.4,0.2,0.9,0.3,1.3,0.3c1.5,0,2.8-1,3.2-2.5
	C46.3,76.4,46.8,69,46.1,61.5z"/>
	</g>
</svg>
