<svg xmlns="http://www.w3.org/2000/svg" viewBox="0 0 94.19 94.19">
  <circle cx="47.1" cy="47.1" r="47.1" fill="#3566aa"/>
  <path d="M24.07 44.22h-5.14a3.29 3.29 0 110-6.58h5.14a3.29 3.29 0 110 6.58z" fill="#fff"/>
  <circle cx="59.64" cy="26.23" r="9.86" fill="#fff"/>
  <path d="M79.16 72.4c.52-11.79-2.9-28.05-2.9-28.05-.66-3.15-1.76-8.09-5.26-9.45a5.28 5.28 0 00-2.08-.35c-.42.01-.81.19-1.11.49a11.65 11.65 0 01-7.92 3.47h-.3a11.65 11.65 0 01-7.92-3.47c-.3-.3-.69-.48-1.11-.49a5.47 5.47 0 00-2.08.35c-3.49 1.36-4.6 6.3-5.26 9.45 0 0-3.42 16.26-2.9 28.05h38.84z" fill="#fff"/>
  <g fill="#fff">
    <circle cx="35.76" cy="29.8" r="9.86"/>
    <path d="M55.16 73.4c.52-11.48-2.9-27.31-2.9-27.31-.66-3.07-1.77-7.88-5.26-9.2a5.44 5.44 0 00-2.08-.34c-.42.01-.81.18-1.11.47a11.8 11.8 0 01-7.92 3.38h-.3a11.75 11.75 0 01-7.92-3.38c-.3-.29-.69-.46-1.11-.47a5.64 5.64 0 00-2.08.34c-3.49 1.33-4.6 6.14-5.26 9.2 0 0-3.42 15.83-2.9 27.31h38.84z" stroke="#3566aa" stroke-width="2" stroke-miterlimit="10"/>
  </g>
  <path d="M54.16 69.01a3.5 3.5 0 011.99-6.69c7.25 1.51 14.63-2.46 16.45-8.83 1.34-4.71-.64-10.23-4.93-13.74a3.5 3.5 0 014.44-5.42c6.51 5.34 9.35 13.61 7.23 21.07-2.84 10-13.65 16.05-24.6 13.77a2.6 2.6 0 01-.58-.16z" fill="#fff" stroke="#3566aa" stroke-width="2" stroke-miterlimit="10"/>
</svg>
