<?xml version="1.0" encoding="utf-8"?>
<!-- Generator: Adobe Illustrator 24.1.1, SVG Export Plug-In . SVG Version: 6.00 Build 0)  -->
<svg version="1.1" id="Praktische_Betreuungsaufgaben"
	 xmlns="http://www.w3.org/2000/svg" xmlns:xlink="http://www.w3.org/1999/xlink" x="0px" y="0px" viewBox="0 0 94.19 94.19"
	 style="enable-background:new 0 0 94.19 94.19;" xml:space="preserve">
<circle id="Kreis" style="fill:#3566AA;" cx="47.1" cy="47.1" r="47.1"/>
<path style="fill:#FFFFFF;" d="M24.07,44.22h-5.14c-1.82,0-3.29-1.47-3.29-3.29c0-1.82,1.47-3.29,3.29-3.29h5.14
	c1.82,0,3.29,1.47,3.29,3.29C27.35,42.75,25.88,44.22,24.07,44.22z"/>
<circle style="fill:#FFFFFF;" cx="59.64" cy="26.23" r="9.86"/>
<path style="fill:#FFFFFF;" d="M79.16,72.4c0.52-11.79-2.9-28.05-2.9-28.05C75.6,41.2,74.5,36.26,71,34.9
	c-0.75-0.29-1.47-0.37-2.08-0.35c-0.42,0.01-0.81,0.19-1.11,0.49c-1.06,1.06-3.82,3.4-7.92,3.47c-0.05,0-0.1,0-0.15,0
	c-0.05,0-0.1,0-0.15,0c-4.1-0.07-6.86-2.41-7.92-3.47c-0.3-0.3-0.69-0.48-1.11-0.49c-0.61-0.01-1.33,0.06-2.08,0.35
	c-3.49,1.36-4.6,6.3-5.26,9.45c0,0-3.42,16.26-2.9,28.05H79.16z"/>
<g id="Männchen_2">
	<circle style="fill:#FFFFFF;" cx="35.76" cy="29.8" r="9.86"/>
	<path style="fill:#FFFFFF;stroke:#3566AA;stroke-width:2;stroke-miterlimit:10;" d="M55.16,73.4c0.52-11.48-2.9-27.31-2.9-27.31
		c-0.66-3.07-1.77-7.88-5.26-9.2c-0.75-0.28-1.47-0.36-2.08-0.34c-0.42,0.01-0.81,0.18-1.11,0.47c-1.06,1.03-3.82,3.31-7.92,3.38
		c-0.05,0-0.1,0-0.15,0c-0.05,0-0.1,0-0.15,0c-4.1-0.07-6.86-2.34-7.92-3.38c-0.3-0.29-0.69-0.46-1.11-0.47
		c-0.61-0.01-1.33,0.06-2.08,0.34c-3.49,1.33-4.6,6.14-5.26,9.2c0,0-3.42,15.83-2.9,27.31H55.16z"/>
</g>
<path style="fill:#FFFFFF;stroke:#3566AA;stroke-width:2;stroke-miterlimit:10;" d="M54.16,69.01c-1.56-0.61-2.5-2.27-2.15-3.97
	c0.39-1.89,2.25-3.11,4.14-2.72c7.25,1.51,14.63-2.46,16.45-8.83c1.34-4.71-0.64-10.23-4.93-13.74c-1.5-1.23-1.71-3.43-0.49-4.93
	c1.22-1.5,3.43-1.72,4.93-0.49c6.51,5.34,9.35,13.61,7.23,21.07c-2.84,10-13.65,16.05-24.6,13.77
	C54.53,69.14,54.34,69.08,54.16,69.01z"/>
<g>
</g>
<g>
</g>
<g>
</g>
<g>
</g>
<g>
</g>
<g>
</g>
<g>
</g>
<g>
</g>
<g>
</g>
<g>
</g>
<g>
</g>
<g>
</g>
<g>
</g>
<g>
</g>
<g>
</g>
</svg>
