<?xml version="1.0" encoding="utf-8"?>
<!-- Generator: Adobe Illustrator 24.1.1, SVG Export Plug-In . SVG Version: 6.00 Build 0)  -->
<svg version="1.1" id="Verhaltensveränderungen" xmlns="http://www.w3.org/2000/svg" xmlns:xlink="http://www.w3.org/1999/xlink"
	 x="0px" y="0px" viewBox="0 0 94.19 94.19" style="enable-background:new 0 0 94.19 94.19;" xml:space="preserve">
<circle id="Kreis" style="fill:#3566AA;" cx="47.1" cy="47.1" r="47.1"/>
<g id="Männchen">
	<circle style="fill:#FFFFFF;" cx="47.1" cy="31.13" r="9.88"/>
	<path style="fill:#FFFFFF;stroke:#3566AA;stroke-width:0.9605;stroke-miterlimit:10;" d="M63.64,45.8
		c-0.66-1.54-1.77-3.95-5.27-4.61c-0.75-0.14-1.47-0.18-2.08-0.17c-0.42,0-0.81,0.09-1.11,0.24c-1.06,0.52-3.83,1.66-7.94,1.69
		c-0.05,0-0.1,0-0.15,0c-0.05,0-0.1,0-0.15,0c-4.11-0.03-6.88-1.17-7.94-1.69c-0.3-0.15-0.69-0.23-1.11-0.24
		c-0.61-0.01-1.33,0.03-2.08,0.17c-3.5,0.66-4.61,3.08-5.27,4.61c0,0-5.41,12.5-1.61,17.5c0.23,0.3,0.84,1.11,2.34,1.46
		c1.09,0.26,2.17,0.17,2.49,0.15c1.6-0.12,6.23-0.15,13.33-0.11c7.1-0.04,11.72-0.01,13.33,0.11c0.32,0.02,1.4,0.11,2.49-0.15
		c1.5-0.36,2.11-1.16,2.34-1.46C69.05,58.31,63.64,45.8,63.64,45.8z"/>
</g>
<g id="Pfeile">
	<path style="fill:#FFFFFF;" d="M77.94,30.47l-6.02-1.07c-0.75-0.14-1.46,0.37-1.6,1.12c-0.13,0.75,0.37,1.46,1.12,1.6l8.51,1.51
		c0.12,0.02,0.25,0.03,0.37,0.03c0.95,0,1.82-0.65,2.06-1.6l2.11-8.38c0.19-0.74-0.26-1.49-1-1.67c-0.74-0.19-1.49,0.26-1.67,1
		l-1.44,5.7C71.73,12.83,52.81,5.14,35.42,10.78l1.1,2.79C52.61,8.44,70.09,15.67,77.94,30.47z"/>
	<path style="fill:#FFFFFF;" d="M13.81,57.43c-5.08-15.94,1.97-33.24,16.5-41.19l-1.25,6.28c-0.15,0.75,0.34,1.47,1.08,1.62
		c0.09,0.02,0.18,0.03,0.27,0.03c0.64,0,1.22-0.45,1.35-1.11l1.68-8.48c0.22-1.09-0.45-2.17-1.52-2.46l-8.33-2.28
		c-0.73-0.2-1.49,0.23-1.69,0.97c-0.2,0.73,0.23,1.49,0.97,1.69l5.38,1.47C12.84,22.78,5.47,41.4,11.03,58.53L13.81,57.43z"/>
	<path style="fill:#FFFFFF;" d="M16.71,64.05L22.7,65c0.76,0.12,1.46-0.39,1.58-1.14s-0.39-1.46-1.14-1.58l-8.53-1.35
		c-1.1-0.17-2.15,0.54-2.4,1.61l-1.96,8.42c-0.17,0.74,0.29,1.48,1.03,1.65c0.11,0.02,0.21,0.04,0.31,0.04
		c0.63,0,1.19-0.43,1.34-1.07l1.34-5.77c8.84,15.33,27.41,22.65,44.5,17.11l-1.1-2.79C41.88,85.16,24.76,78.3,16.71,64.05z"/>
	<path style="fill:#FFFFFF;" d="M83.17,35.17l-2.79,1.1C85.39,52,78.6,69.04,64.48,77.14l1.99-5.39c0.26-0.71-0.1-1.51-0.81-1.77
		c-0.71-0.27-1.51,0.1-1.77,0.81l-3,8.1c-0.38,1.04,0.1,2.21,1.11,2.67l7.87,3.57c0.18,0.08,0.38,0.12,0.57,0.12
		c0.52,0,1.02-0.3,1.26-0.81c0.31-0.69,0.01-1.51-0.69-1.82l-5.64-2.56C81.16,71.39,88.79,52.52,83.17,35.17z"/>
</g>
</svg>
