<svg height="512px" viewBox="0 -43 512 512" width="512px" xmlns="http://www.w3.org/2000/svg"><path d="m117.988281 182.652344c.296875-2.554688.460938-5.140625.460938-7.75 0-17.851563-6.949219-34.628906-19.570313-47.25-5.839844-5.839844-15.304687-5.839844-21.144531 0l-73.355469 73.351562c-2.804687 2.804688-4.378906 6.609375-4.378906 10.574219s1.574219 7.769531 4.378906 10.574219c13.027344 13.023437 30.136719 19.539062 47.25 19.539062 3.035156 0 6.070313-.214844 9.082032-.625l68.164062 68.160156 6.898438-108.789062zm0 0"/><path d="m512 106.808594c0-58.894532-47.914062-106.808594-106.808594-106.808594-42.882812 0-79.9375 25.40625-96.921875 61.953125h34.511719c13.976562-19.390625 36.734375-32.050781 62.410156-32.050781 42.40625 0 76.90625 34.5 76.90625 76.90625 0 31.730468-19.320312 59.03125-46.8125 70.765625l1.976563 31.121093c43.273437-13.648437 74.738281-54.160156 74.738281-101.886718zm0 0"/><path d="m405.066406 173.546875h-237.621094l-15.046874 237.1875c-.261719 4.121094 1.195312 8.167969 4.023437 11.179687 2.824219 3.011719 6.769531 4.71875 10.898437 4.71875h237.871094c4.128906 0 8.074219-1.707031 10.902344-4.71875 2.824219-3.011718 4.28125-7.058593 4.019531-11.179687zm0 0"/><path d="m403.167969 143.644531-2.394531-37.78125c-.5-7.875-7.03125-14.003906-14.921876-14.003906h-199.191406c-7.890625 0-14.425781 6.128906-14.921875 14.003906l-2.398437 37.78125zm0 0"/></svg>
