<?xml version="1.0" encoding="utf-8"?>
<!-- Generator: Adobe Illustrator 24.1.1, SVG Export Plug-In . SVG Version: 6.00 Build 0)  -->
<svg version="1.1" id="Welle" xmlns="http://www.w3.org/2000/svg" xmlns:xlink="http://www.w3.org/1999/xlink" x="0px" y="0px"
	 viewBox="0 0 239.14 102.28" style="enable-background:new 0 0 239.14 102.28;" xml:space="preserve">
<style type="text/css">
	.st0{fill:#3566AA;}
</style>
<path class="st0" d="M173.41,102.28c-16.34,0-32.01-6.88-45.89-20.26c-12.2-11.76-18.82-24.69-19.1-25.23
	c-0.17-0.34-19.52-37.19-49.73-31.07C28.49,31.84,25,73.32,24.97,73.74c-0.52,6.87-6.5,12.04-13.37,11.54
	c-6.87-0.5-12.04-6.44-11.57-13.31c0.04-0.61,1.11-15.09,7.77-30.68C17.22,19.26,33.1,5.4,53.72,1.22
	c20.62-4.18,40.64,2.4,57.9,19.04c12.2,11.76,18.82,24.69,19.1,25.23c0.17,0.34,19.52,37.18,49.73,31.07
	c30.2-6.12,33.69-47.6,33.72-48.01c0.52-6.87,6.5-12.05,13.37-11.54c6.87,0.5,12.04,6.44,11.57,13.31
	c-0.04,0.61-1.11,15.09-7.77,30.68c-9.42,22.04-25.3,35.89-45.92,40.07C181.38,101.87,177.38,102.28,173.41,102.28z"/>
<g>
</g>
<g>
</g>
<g>
</g>
<g>
</g>
<g>
</g>
<g>
</g>
<g>
</g>
<g>
</g>
<g>
</g>
<g>
</g>
<g>
</g>
<g>
</g>
<g>
</g>
<g>
</g>
<g>
</g>
</svg>
