<?xml version="1.0" encoding="utf-8"?>
<!-- Generator: Adobe Illustrator 24.1.1, SVG Export Plug-In . SVG Version: 6.00 Build 0)  -->
<svg version="1.1" id="Zukunft" xmlns="http://www.w3.org/2000/svg" xmlns:xlink="http://www.w3.org/1999/xlink" x="0px" y="0px"
	 viewBox="0 0 94.19 94.19" style="enable-background:new 0 0 94.19 94.19;" xml:space="preserve">
<circle id="Kreis" style="fill:#3566AA;" cx="47.1" cy="47.1" r="47.1"/>
<path id="Pfeil" style="fill:#FFFFFF;" d="M34.06,13.74l19.1,3.78c0.35,0.07,0.49,0.49,0.26,0.75L40.6,32.92
	c-0.23,0.27-0.67,0.18-0.78-0.15l-1.86-5.46c-5.2,2.7-9.39,7.07-11.82,12.46c-2.84,6.3-2.97,13.22-0.35,18.99
	c2.44,5.37,7.27,9.71,13.25,11.91c6.13,2.25,12.58,2.03,18.16-0.61c9.7-4.58,15.05-15.55,13.01-26.67
	c-0.43-2.34,1.12-4.59,3.47-5.02c2.34-0.43,4.6,1.11,5.02,3.47c2.74,14.96-4.58,29.78-17.81,36.02c-7.69,3.64-16.51,3.96-24.82,0.9
	c-8.14-2.99-14.75-8.98-18.14-16.44c-0.39-0.86-0.74-1.74-1.04-2.63c-2.53-7.43-2.06-15.83,1.38-23.48
	c3.41-7.57,9.43-13.62,16.88-17.15l-1.61-4.73C33.43,14,33.72,13.67,34.06,13.74z"/>
<polyline style="fill:none;stroke:#FFFFFF;stroke-width:4;stroke-linecap:round;stroke-miterlimit:10;" points="47.1,38.92
	47.1,48.28 56.63,55.09 "/>
<g>
</g>
<g>
</g>
<g>
</g>
<g>
</g>
<g>
</g>
<g>
</g>
<g>
</g>
<g>
</g>
<g>
</g>
<g>
</g>
<g>
</g>
<g>
</g>
<g>
</g>
<g>
</g>
<g>
</g>
</svg>
