<?xml version="1.0" standalone="no"?>
<!DOCTYPE svg PUBLIC "-//W3C//DTD SVG 20010904//EN"
 "http://www.w3.org/TR/2001/REC-SVG-20010904/DTD/svg10.dtd">
<svg version="1.0" xmlns="http://www.w3.org/2000/svg"
 width="1084.000000pt" height="1084.000000pt" viewBox="0 0 1084.000000 1084.000000"
 preserveAspectRatio="xMidYMid meet">
<metadata>
Created by potrace 1.11, written by Peter Selinger 2001-2013
</metadata>
<g transform="translate(0.000000,1084.000000) scale(0.100000,-0.100000)"
fill="#000000" stroke="none">
<path d="M0 10837 c0 -2 63 -189 140 -417 78 -228 161 -473 185 -545 24 -71
122 -362 218 -645 96 -283 204 -605 241 -715 37 -110 71 -209 76 -220 5 -11
47 -135 94 -275 46 -140 166 -496 266 -790 349 -1031 412 -1216 440 -1300 16
-47 112 -332 215 -635 102 -302 201 -595 220 -650 18 -55 106 -314 195 -575
89 -261 166 -491 171 -510 6 -19 14 -44 19 -55 5 -11 29 -81 54 -155 25 -74
122 -362 216 -640 95 -278 174 -514 177 -525 2 -11 9 -29 13 -40 9 -20 128
-372 286 -845 47 -140 89 -264 94 -275 8 -19 226 -663 307 -907 19 -60 40
-109 47 -109 6 -1 795 -2 1752 -3 l1742 -1 32 95 c18 52 118 347 222 655 104
308 245 727 314 930 69 204 161 474 204 600 42 127 135 399 204 605 70 206
176 519 236 695 59 176 162 480 228 675 66 195 179 528 251 740 71 212 179
531 240 710 280 828 427 1263 501 1480 43 129 160 476 260 770 100 294 219
645 265 780 45 135 85 252 88 260 9 23 228 674 231 685 2 6 6 17 9 25 3 8 26
76 51 150 25 74 108 322 186 550 77 228 140 418 140 422 0 4 -573 8 -1273 8
l-1273 0 -42 -132 c-23 -73 -78 -245 -123 -383 -44 -137 -81 -257 -83 -265 -3
-8 -25 -80 -51 -160 -26 -80 -75 -235 -110 -345 -35 -111 -81 -257 -104 -325
-60 -188 -122 -383 -127 -400 -2 -8 -15 -49 -28 -90 -23 -70 -123 -384 -203
-635 -19 -60 -52 -164 -73 -230 -56 -174 -100 -313 -175 -550 -36 -115 -70
-221 -75 -235 -5 -14 -32 -99 -60 -190 -29 -91 -76 -239 -105 -330 -67 -207
-118 -369 -185 -580 -28 -91 -64 -203 -80 -250 -15 -47 -45 -139 -65 -205 -21
-66 -48 -154 -62 -195 -13 -41 -26 -82 -28 -90 -3 -8 -47 -148 -99 -310 -222
-694 -376 -1181 -400 -1265 -70 -251 -233 -861 -242 -908 -2 -10 -6 -27 -9
-37 -3 -10 -8 -27 -10 -37 -4 -15 -27 -112 -40 -163 -88 -348 -210 -898 -231
-1040 -3 -19 -7 -42 -9 -50 -2 -8 -7 -33 -10 -55 -3 -23 -8 -52 -10 -65 -3
-14 -8 -47 -11 -75 -6 -53 -24 -87 -24 -44 0 19 -29 177 -55 299 -1 8 -13 62
-25 120 -12 58 -34 159 -50 225 -30 127 -34 144 -49 216 -5 25 -22 92 -36 150
-15 57 -29 115 -31 129 -3 14 -7 33 -10 42 -3 9 -6 25 -8 35 -6 29 -112 450
-136 538 -12 44 -23 88 -25 98 -3 10 -27 103 -55 205 -29 103 -53 194 -55 202
-12 58 -138 465 -316 1020 -29 91 -54 167 -54 170 -1 6 -6 20 -75 240 -71 225
-159 504 -235 745 -31 99 -76 241 -100 315 -24 74 -62 196 -85 270 -23 74 -46
146 -51 160 -5 14 -54 169 -109 345 -56 176 -126 399 -157 495 -30 96 -68 217
-84 268 -16 50 -42 135 -59 187 -16 52 -43 138 -60 190 -16 52 -43 138 -60
190 -16 52 -43 137 -59 188 -16 50 -73 229 -126 397 -53 168 -107 339 -120
380 -13 41 -28 89 -33 105 -6 17 -27 84 -47 150 -21 66 -41 129 -45 140 -5 11
-13 36 -19 55 -5 19 -37 123 -71 230 -91 287 -112 355 -180 570 -34 107 -69
220 -80 250 -10 30 -37 115 -59 188 l-42 132 -1274 0 c-701 0 -1275 -1 -1275
-3z"/>
</g>
</svg>
