<?xml version="1.0" standalone="no"?>
<!DOCTYPE svg PUBLIC "-//W3C//DTD SVG 20010904//EN"
 "http://www.w3.org/TR/2001/REC-SVG-20010904/DTD/svg10.dtd">
<svg version="1.0" xmlns="http://www.w3.org/2000/svg"
 width="572.000000pt" height="572.000000pt" viewBox="0 0 572.000000 572.000000"
 preserveAspectRatio="xMidYMid meet">
<metadata>
Created by potrace 1.11, written by Peter Selinger 2001-2013
</metadata>
<g transform="translate(0.000000,572.000000) scale(0.100000,-0.100000)"
fill="#000000" stroke="none">
<path d="M2107 5678 c-8 -18 -29 -78 -47 -133 -18 -55 -35 -104 -39 -110 -3
-5 -6 -14 -7 -20 -1 -5 -18 -55 -39 -110 -20 -55 -38 -108 -40 -117 -2 -9 -9
-26 -15 -37 -6 -12 -8 -21 -4 -21 3 0 2 -6 -4 -12 -5 -7 -14 -29 -20 -48 -6
-19 -31 -93 -57 -165 -26 -71 -50 -141 -55 -155 -10 -29 -97 -278 -195 -555
-37 -104 -70 -201 -75 -215 -11 -34 -246 -703 -267 -760 -10 -25 -18 -49 -20
-55 -2 -10 -50 -146 -158 -450 -31 -88 -74 -212 -96 -275 -21 -63 -42 -122
-46 -130 -3 -8 -7 -19 -9 -25 -3 -10 -88 -251 -129 -365 -13 -36 -63 -177
-111 -315 -48 -137 -91 -261 -97 -275 -6 -14 -11 -31 -13 -39 -2 -8 -16 -51
-32 -95 -17 -45 -56 -155 -87 -246 -31 -91 -61 -174 -65 -185 -5 -11 -41 -112
-80 -225 -99 -282 -177 -502 -185 -522 -7 -17 28 -18 644 -18 688 0 656 -2
665 42 2 7 6 21 10 30 4 9 9 22 10 30 2 13 27 97 76 253 15 50 40 131 55 180
15 50 43 142 63 205 20 63 37 120 38 125 3 15 54 188 61 205 3 8 7 20 8 25 2
6 13 44 26 85 13 41 24 77 24 80 11 51 28 88 43 91 27 6 2051 3 2057 -3 4 -4
42 -121 60 -188 7 -24 50 -165 98 -320 25 -80 50 -161 55 -180 13 -44 36 -119
107 -350 31 -102 58 -189 59 -195 2 -5 6 -17 9 -25 3 -8 10 -31 15 -50 l8 -35
652 -3 c359 -1 652 0 652 2 0 2 -9 25 -20 50 -11 26 -20 48 -20 51 0 9 -5 26
-13 45 -3 8 -29 83 -57 165 -29 83 -56 159 -60 170 -5 11 -22 58 -38 105 -17
47 -44 123 -60 170 -17 47 -58 164 -92 260 -34 96 -72 204 -85 240 -13 36 -36
101 -50 145 -15 44 -33 94 -40 110 -7 17 -17 44 -21 60 -4 17 -10 35 -15 40
-4 6 -7 12 -8 15 0 3 -2 12 -5 20 -14 44 -90 262 -106 305 -10 28 -35 97 -55
155 -20 58 -47 134 -60 170 -13 36 -45 126 -70 200 -26 74 -51 144 -55 155 -5
11 -36 99 -69 195 -34 96 -66 183 -71 192 -6 10 -10 27 -10 37 0 11 -4 23 -10
26 -5 3 -10 16 -10 29 0 12 -4 26 -8 32 -4 5 -14 27 -21 49 -7 22 -16 49 -20
60 -9 24 -22 60 -62 175 -16 47 -32 92 -36 100 -3 8 -7 20 -9 25 -1 6 -21 62
-44 125 -22 63 -55 156 -72 205 -17 50 -35 96 -41 103 -5 6 -7 12 -3 12 3 0
-8 37 -25 83 -17 45 -35 93 -39 107 -5 14 -31 90 -60 170 -28 80 -67 189 -86
243 -19 53 -49 141 -68 195 -19 53 -58 162 -86 242 -28 80 -58 165 -66 190 -8
25 -20 54 -25 65 -6 12 -11 28 -13 38 -1 9 -5 20 -9 23 -4 4 -7 13 -7 20 0 7
-5 25 -12 41 -6 15 -12 33 -14 38 -1 6 -14 42 -29 80 -15 39 -34 94 -42 123
l-16 52 -738 0 -739 0 -13 -32z m791 -991 c18 -67 34 -129 36 -137 9 -34 58
-196 64 -210 3 -8 7 -19 7 -25 1 -5 5 -17 8 -25 3 -8 12 -37 20 -65 19 -63 72
-237 132 -430 26 -82 48 -154 50 -160 1 -5 5 -17 8 -25 6 -15 58 -185 63 -205
1 -5 10 -32 19 -60 9 -27 20 -63 25 -80 4 -16 40 -133 80 -260 40 -126 80
-257 90 -290 10 -33 31 -103 48 -155 37 -116 52 -172 49 -185 -1 -7 -254 -10
-735 -10 l-733 0 6 25 c5 23 72 238 112 365 9 28 16 51 15 52 -1 2 6 22 14 45
9 24 17 50 19 58 2 8 38 128 80 265 79 255 90 291 123 405 11 36 60 200 110
365 79 262 108 361 118 400 1 6 23 82 49 170 25 88 48 169 50 180 13 60 29
115 34 115 3 0 21 -55 39 -123z"/>
</g>
</svg>
